<svg width="40" height="39" viewBox="0 0 40 39" fill="none" xmlns="http://www.w3.org/2000/svg">
<path d="M28.5 28.0186L13.4125 28.0186L17.875 23.5561L9.5875 14.8436L15.75 8.89355L24.0375 17.6061L28.5 13.1436V28.0186ZM34.875 0.393555L5.125 0.393555C2.7875 0.393555 0.875 2.30605 0.875 4.64355L0.875 34.3936C0.875 36.7311 2.7875 38.6436 5.125 38.6436L34.875 38.6436C37.2125 38.6436 39.125 36.7311 39.125 34.3936L39.125 4.64355C39.125 2.30605 37.2125 0.393555 34.875 0.393555ZM34.875 4.64355L34.875 34.3936L5.125 34.3936L5.125 4.64355L34.875 4.64355Z" fill="#271B1C"/>
</svg>
