<svg width="236" height="238" viewBox="0 0 236 238" fill="none" xmlns="http://www.w3.org/2000/svg">
<g clip-path="url(#clip0_484_1657)">
<rect width="75.6434" height="75.6434" transform="translate(143.527 166.582) rotate(-165)" fill="#F6E077"/>
<path d="M132.224 111.346L126.433 132.961L121.752 124.855L106.089 133.383L99.9302 122.271L115.594 113.742L110.914 105.636L132.224 111.346ZM95.0943 91.6078L83.6738 134.23C82.7765 137.579 84.7823 141.053 88.1312 141.95L130.753 153.37C134.102 154.268 137.576 152.262 138.473 148.913L149.894 106.291C150.791 102.942 148.785 99.4683 145.436 98.571L102.815 87.1505C99.4658 86.2532 95.9916 88.259 95.0943 91.6078ZM101.183 93.2393L143.805 104.66L132.384 147.282L89.7627 135.861L101.183 93.2393Z" fill="#032D2D"/>
</g>
<path d="M129.065 33.8764L131.308 34.4774C130.885 36.0537 130.167 37.1594 129.152 37.7944C128.137 38.4293 126.911 38.5542 125.473 38.1691C122.309 37.3212 121.225 35.0369 122.222 31.3162L122.502 30.273C123.287 27.3404 124.591 25.7206 126.413 25.4136C127.131 25.2831 127.942 25.3389 128.846 25.5812C130.168 25.9352 131.142 26.5876 131.769 27.5384C132.411 28.4807 132.549 29.6357 132.183 31.0034L129.922 30.3978C129.978 29.6798 129.89 29.1034 129.659 28.6687C129.427 28.234 128.964 27.9235 128.269 27.7371C127.457 27.5197 126.786 27.6132 126.255 28.0176C125.881 28.3024 125.554 28.8733 125.275 29.7302C125.177 30.0021 125.064 30.3757 124.937 30.851L124.648 31.929C124.291 33.2619 124.233 34.2215 124.473 34.8077C124.725 35.3971 125.251 35.7989 126.051 36.0132C126.862 36.2306 127.478 36.1594 127.897 35.7997C128.331 35.4315 128.72 34.7904 129.065 33.8764ZM142.969 35.4962L142.717 36.4351C142.161 38.5099 141.363 39.9112 140.324 40.6388C139.296 41.3696 137.918 41.5036 136.191 41.0409C134.464 40.5781 133.338 39.7732 132.813 38.6263C132.299 37.4824 132.325 35.8557 132.89 33.7461L133.133 32.842C133.648 30.9179 134.42 29.5904 135.448 28.8596C136.488 28.1319 137.854 27.9948 139.546 28.4483C141.25 28.9048 142.375 29.7155 142.92 30.8803C143.465 32.045 143.481 33.5837 142.969 35.4962ZM140.314 35.7354L140.487 35.0921C140.785 33.9793 140.884 33.0553 140.782 32.3201C140.663 31.4681 140.07 30.8993 139.003 30.6135C137.925 30.3247 137.122 30.5193 136.592 31.1973C136.158 31.7518 135.787 32.6028 135.48 33.7504L135.307 34.3937C134.906 35.8889 134.845 36.9532 135.122 37.5867C135.226 37.8504 135.412 38.1053 135.682 38.3514C135.966 38.5891 136.328 38.7669 136.769 38.8849C137.221 39.0061 137.623 39.0332 137.977 38.9664C138.33 38.8995 138.623 38.7793 138.856 38.6057C139.089 38.432 139.3 38.178 139.489 37.8435C139.803 37.319 140.078 36.6163 140.314 35.7354ZM156.237 33.0322L153.255 44.1597C153.153 44.5422 152.948 44.8415 152.642 45.0576C152.339 45.262 152.03 45.3223 151.717 45.2385C150.918 45.0242 150.387 44.3851 150.125 43.3211L147.642 35.4812L145.513 43.4269L143.096 42.7793L146.413 30.4L148.743 31.0243L151.649 40.4868L153.82 32.3847L156.237 33.0322ZM166.216 38.017L162.896 37.1272L160.156 47.3506L157.74 46.703L160.479 36.4797L157.175 35.5945L157.753 33.4386L166.794 35.8611L166.216 38.017ZM174.749 51.2606L172.228 50.5851L172.105 48.2602L167.95 47.1468L166.699 49.1036L164.178 48.4281L171.179 38.1542C171.459 37.8067 171.723 37.5855 171.972 37.4908C172.233 37.3991 172.519 37.3952 172.832 37.479C173.145 37.5629 173.376 37.6992 173.524 37.888C173.684 38.0799 173.783 38.4047 173.822 38.8623L174.749 51.2606ZM172.094 46.0769L171.947 40.7825L169.103 45.2756L172.094 46.0769ZM187.237 43.6494L183.916 42.7596L181.176 52.9829L178.76 52.3354L181.499 42.112L178.196 41.2268L178.773 39.0709L187.814 41.4934L187.237 43.6494ZM197.169 46.3109L193.849 45.4211L191.109 55.6444L188.693 54.9969L191.432 44.7735L188.128 43.8883L188.706 41.7324L197.747 44.1549L197.169 46.3109ZM205.702 59.5545L203.181 58.8789L203.058 56.554L198.903 55.4406L197.652 57.3975L195.131 56.7219L202.132 46.448C202.412 46.1005 202.676 45.8794 202.925 45.7846C203.186 45.6929 203.472 45.689 203.785 45.7729C204.098 45.8567 204.329 45.993 204.477 46.1818C204.637 46.3737 204.736 46.6985 204.775 47.1562L205.702 59.5545ZM203.047 54.3707L202.9 49.0763L200.056 53.5694L203.047 54.3707ZM214.945 56.888L217.188 57.489C216.766 59.0654 216.047 60.1711 215.032 60.806C214.017 61.441 212.791 61.5659 211.354 61.1808C208.19 60.3329 207.106 58.0486 208.103 54.3278L208.382 53.2846C209.168 50.3521 210.472 48.7323 212.293 48.4253C213.012 48.2947 213.823 48.3506 214.727 48.5928C216.048 48.9469 217.023 49.5993 217.65 50.55C218.292 51.4923 218.43 52.6473 218.063 54.0151L215.803 53.4094C215.859 52.6914 215.771 52.115 215.539 51.6803C215.308 51.2456 214.845 50.9351 214.149 50.7488C213.338 50.5314 212.667 50.6249 212.136 51.0293C211.761 51.3141 211.435 51.8849 211.155 52.7418C211.058 53.0138 210.945 53.3874 210.818 53.8626L210.529 54.9406C210.172 56.2736 210.113 57.2332 210.354 57.8194C210.606 58.4087 211.132 58.8105 211.932 59.0248C212.743 59.2422 213.358 59.1711 213.778 58.8114C214.212 58.4432 214.601 57.8021 214.945 56.888ZM220.378 63.487L217.961 62.8394L221.278 50.4601L223.695 51.1077L220.378 63.487Z" fill="white"/>
<path d="M11.2776 181.921L13.5205 182.522C13.0981 184.099 12.3794 185.204 11.3645 185.839C10.3496 186.474 9.12348 186.599 7.68619 186.214C4.52181 185.366 3.43811 183.082 4.43508 179.361L4.71461 178.318C5.50038 175.385 6.80403 173.766 8.62556 173.459C9.34383 173.328 10.155 173.384 11.0591 173.626C12.3805 173.98 13.3548 174.633 13.9821 175.583C14.6241 176.526 14.7619 177.681 14.3954 179.048L12.1351 178.443C12.1909 177.725 12.1031 177.148 11.8717 176.714C11.6403 176.279 11.1769 175.968 10.4814 175.782C9.67005 175.565 8.99899 175.658 8.46823 176.063C8.09377 176.347 7.76688 176.918 7.48758 177.775C7.38986 178.047 7.27733 178.421 7.14999 178.896L6.86115 179.974C6.50398 181.307 6.44563 182.266 6.6861 182.853C6.93816 183.442 7.46408 183.844 8.26387 184.058C9.07525 184.276 9.69063 184.204 10.11 183.845C10.5441 183.476 10.9333 182.835 11.2776 181.921ZM25.1817 183.541L24.9302 184.48C24.3742 186.555 23.5764 187.956 22.5366 188.684C21.5084 189.415 20.1308 189.549 18.4037 189.086C16.6766 188.623 15.5506 187.818 15.0255 186.671C14.5121 185.527 14.538 183.901 15.1033 181.791L15.3455 180.887C15.8611 178.963 16.633 177.635 17.6611 176.905C18.7009 176.177 20.0669 176.04 21.7593 176.493C23.4631 176.95 24.5876 177.76 25.1328 178.925C25.6779 180.09 25.6942 181.629 25.1817 183.541ZM22.5274 183.78L22.6998 183.137C22.9979 182.024 23.0964 181.1 22.9953 180.365C22.8757 179.513 22.2827 178.944 21.2163 178.658C20.1384 178.37 19.3346 178.564 18.8051 179.242C18.3708 179.797 17.9999 180.648 17.6924 181.795L17.52 182.439C17.1194 183.934 17.0578 184.998 17.3353 185.632C17.4386 185.895 17.625 186.15 17.8944 186.396C18.1786 186.634 18.5409 186.812 18.9814 186.93C19.4334 187.051 19.8361 187.078 20.1895 187.011C20.5428 186.944 20.8359 186.824 21.0688 186.651C21.3017 186.477 21.5126 186.223 21.7016 185.888C22.0161 185.364 22.2913 184.661 22.5274 183.78ZM38.4495 181.077L35.4679 192.205C35.3654 192.587 35.161 192.886 34.8546 193.102C34.5514 193.307 34.2433 193.367 33.9303 193.283C33.1305 193.069 32.5999 192.43 32.3383 191.366L29.8548 183.526L27.7258 191.472L25.309 190.824L28.6261 178.445L30.9559 179.069L33.8618 188.532L36.0328 180.43L38.4495 181.077ZM48.4294 186.062L45.1085 185.172L42.3692 195.396L39.9524 194.748L42.6918 184.525L39.3883 183.639L39.966 181.483L49.007 183.906L48.4294 186.062ZM56.9616 199.306L54.4405 198.63L54.3181 196.305L50.1627 195.192L48.9116 197.149L46.3905 196.473L53.3922 186.199C53.6716 185.852 53.9359 185.63 54.1849 185.536C54.4455 185.444 54.7323 185.44 55.0452 185.524C55.3582 185.608 55.5888 185.744 55.737 185.933C55.8967 186.125 55.9961 186.45 56.0349 186.907L56.9616 199.306ZM54.3068 194.122L54.1601 188.827L51.3163 193.32L54.3068 194.122ZM69.4496 191.694L66.1287 190.804L63.3894 201.028L60.9726 200.38L63.712 190.157L60.4085 189.272L60.9862 187.116L70.0272 189.538L69.4496 191.694ZM79.3824 194.356L76.0615 193.466L73.3222 203.689L70.9054 203.042L73.6448 192.818L70.3413 191.933L70.919 189.777L79.9601 192.2L79.3824 194.356ZM87.9146 207.599L85.3935 206.924L85.2711 204.599L81.1157 203.486L79.8646 205.442L77.3435 204.767L84.3452 194.493C84.6246 194.145 84.8889 193.924 85.1379 193.83C85.3985 193.738 85.6853 193.734 85.9983 193.818C86.3112 193.902 86.5418 194.038 86.69 194.227C86.8498 194.419 86.9491 194.743 86.988 195.201L87.9146 207.599ZM85.2598 202.416L85.1131 197.121L82.2693 201.614L85.2598 202.416ZM97.1582 204.933L99.4011 205.534C98.9787 207.11 98.2601 208.216 97.2451 208.851C96.2302 209.486 95.0041 209.611 93.5668 209.226C90.4024 208.378 89.3187 206.093 90.3157 202.373L90.5952 201.33C91.381 198.397 92.6846 196.777 94.5062 196.47C95.2244 196.34 96.0356 196.395 96.9397 196.638C98.2611 196.992 99.2355 197.644 99.8628 198.595C100.505 199.537 100.643 200.692 100.276 202.06L98.0158 201.454C98.0715 200.736 97.9837 200.16 97.7523 199.725C97.5209 199.291 97.0575 198.98 96.362 198.794C95.5507 198.576 94.8796 198.67 94.3488 199.074C93.9744 199.359 93.6475 199.93 93.3682 200.787C93.2705 201.059 93.1579 201.432 93.0306 201.908L92.7418 202.986C92.3846 204.318 92.3262 205.278 92.5667 205.864C92.8188 206.454 93.3447 206.855 94.1445 207.07C94.9559 207.287 95.5712 207.216 95.9906 206.856C96.4247 206.488 96.8139 205.847 97.1582 204.933ZM102.591 211.532L100.174 210.884L103.491 198.505L105.908 199.153L102.591 211.532Z" fill="white"/>
<path d="M30.0164 107.161L30.618 104.919C32.1943 105.342 33.2998 106.061 33.9344 107.076C34.569 108.091 34.6936 109.317 34.308 110.754C33.4592 113.918 31.1745 115.001 27.4541 114.003L26.411 113.723C23.4786 112.937 21.8593 111.633 21.5528 109.811C21.4225 109.093 21.4786 108.281 21.7211 107.377C22.0756 106.056 22.7283 105.082 23.6792 104.455C24.6217 103.813 25.7767 103.676 27.1444 104.043L26.5381 106.303C25.82 106.247 25.2436 106.335 24.8089 106.566C24.3741 106.797 24.0634 107.26 23.8769 107.956C23.6592 108.767 23.7525 109.438 24.1568 109.969C24.4414 110.344 25.0122 110.671 25.869 110.95C26.1409 111.048 26.5145 111.161 26.9897 111.288L28.0676 111.577C29.4005 111.935 30.36 111.994 30.9463 111.753C31.5357 111.501 31.9377 110.976 32.1522 110.176C32.3699 109.365 32.2989 108.749 31.9394 108.33C31.5713 107.895 30.9303 107.506 30.0164 107.161ZM31.6405 93.2578L32.5793 93.5097C34.6539 94.0663 36.0549 94.8645 36.7823 95.9045C37.5128 96.9329 37.6463 98.3106 37.183 100.038C36.7198 101.764 35.9145 102.89 34.7674 103.415C33.6234 103.928 31.9967 103.902 29.8873 103.336L28.9832 103.093C27.0593 102.577 25.732 101.805 25.0016 100.776C24.2742 99.7364 24.1375 98.3703 24.5915 96.6781C25.0485 94.9744 25.8596 93.8501 27.0245 93.3054C28.1894 92.7606 29.7281 92.7448 31.6405 93.2578ZM31.8788 95.9122L31.2356 95.7397C30.1229 95.4412 29.1989 95.3424 28.4637 95.4433C27.6117 95.5626 27.0426 96.1554 26.7566 97.2217C26.4674 98.2996 26.6618 99.1034 27.3396 99.6332C27.894 100.068 28.7449 100.439 29.8923 100.747L30.5356 100.919C32.0307 101.32 33.095 101.382 33.7285 101.105C33.9922 101.002 34.2472 100.815 34.4934 100.546C34.7312 100.262 34.9091 99.8996 35.0273 99.4592C35.1485 99.0072 35.1758 98.6045 35.1091 98.2511C35.0424 97.8978 34.9222 97.6046 34.7487 97.3717C34.5751 97.1388 34.3211 96.9278 33.9867 96.7386C33.4623 96.424 32.7597 96.1486 31.8788 95.9122ZM29.1805 79.9893L40.3071 82.9743C40.6896 83.0769 40.9888 83.2814 41.2048 83.5878C41.4092 83.8911 41.4694 84.1993 41.3854 84.5122C41.1709 85.3119 40.5316 85.8424 39.4676 86.1036L31.6269 88.5847L39.5719 90.7162L38.9236 93.1327L26.5453 89.8119L27.1703 87.4823L36.6338 84.5793L28.5322 82.4058L29.1805 79.9893ZM34.1684 70.011L33.2776 73.3316L43.5001 76.074L42.8518 78.4906L32.6293 75.7481L31.7431 79.0513L29.5873 78.473L32.0126 69.4326L34.1684 70.011ZM47.4146 61.4828L46.7383 64.0036L44.4134 64.1254L43.2986 68.2804L45.2551 69.5321L44.5788 72.053L34.3071 65.0482C33.9596 64.7686 33.7386 64.5043 33.6439 64.2553C33.5523 63.9946 33.5485 63.7079 33.6324 63.3949C33.7164 63.082 33.8528 62.8515 34.0416 62.7033C34.2335 62.5436 34.5583 62.4444 35.016 62.4056L47.4146 61.4828ZM42.23 64.136L36.9356 64.2811L41.4278 67.1263L42.23 64.136ZM39.8072 48.9925L38.9164 52.3131L49.1389 55.0555L48.4906 57.4721L38.2681 54.7296L37.3819 58.0328L35.2261 57.4545L37.6514 48.4141L39.8072 48.9925ZM42.4717 39.0605L41.5809 42.3811L51.8034 45.1235L51.1551 47.5401L40.9326 44.7976L40.0464 48.1008L37.8906 47.5225L40.316 38.4822L42.4717 39.0605ZM55.7179 30.5323L55.0416 33.0532L52.7167 33.1749L51.602 37.33L53.5584 38.5817L52.8822 41.1025L42.6104 34.0977C42.263 33.8182 42.0419 33.5538 41.9472 33.3048C41.8556 33.0442 41.8518 32.7574 41.9357 32.4444C42.0197 32.1315 42.1561 31.901 42.3449 31.7529C42.5368 31.5931 42.8617 31.4939 43.3193 31.4552L55.7179 30.5323ZM50.5333 33.1855L45.2389 33.3306L49.7311 36.1758L50.5333 33.1855ZM53.0543 21.2879L53.656 19.0452C55.2322 19.4681 56.3377 20.1871 56.9723 21.2022C57.607 22.2173 57.7315 23.4434 57.3459 24.8806C56.4971 28.0447 54.2124 29.1277 50.492 28.1296L49.4489 27.8498C46.5166 27.0631 44.8972 25.759 44.5907 23.9373C44.4604 23.219 44.5165 22.4079 44.759 21.5038C45.1135 20.1826 45.7662 19.2084 46.7171 18.5814C47.6596 17.9397 48.8147 17.8023 50.1823 18.1692L49.576 20.4293C48.858 20.3733 48.2816 20.461 47.8468 20.6922C47.412 20.9234 47.1014 21.3868 46.9148 22.0822C46.6971 22.8935 46.7904 23.5646 47.1947 24.0955C47.4794 24.47 48.0501 24.7971 48.9069 25.0766C49.1789 25.1744 49.5524 25.2871 50.0276 25.4146L51.1055 25.7037C52.4384 26.0613 53.398 26.12 53.9843 25.8797C54.5737 25.6278 54.9756 25.102 55.1902 24.3023C55.4078 23.491 55.3369 22.8756 54.9773 22.4561C54.6092 22.0219 53.9682 21.6325 53.0543 21.2879ZM59.6549 15.8571L59.0066 18.2737L46.6283 14.9529L47.2766 12.5363L59.6549 15.8571Z" fill="white"/>
<path d="M202.27 130.753L201.671 132.996C200.094 132.576 198.988 131.858 198.352 130.844C197.716 129.83 197.59 128.604 197.973 127.166C198.818 124.001 201.101 122.915 204.823 123.908L205.866 124.186C208.8 124.969 210.421 126.271 210.73 128.092C210.861 128.81 210.806 129.621 210.565 130.526C210.212 131.847 209.561 132.822 208.611 133.451C207.669 134.094 206.514 134.233 205.146 133.868L205.749 131.607C206.467 131.662 207.044 131.573 207.478 131.341C207.912 131.11 208.223 130.646 208.408 129.95C208.625 129.139 208.531 128.468 208.126 127.937C207.84 127.563 207.269 127.237 206.412 126.958C206.14 126.861 205.766 126.749 205.291 126.622L204.213 126.334C202.879 125.979 201.92 125.921 201.334 126.162C200.745 126.415 200.343 126.941 200.13 127.741C199.913 128.553 199.985 129.168 200.345 129.587C200.714 130.021 201.355 130.409 202.27 130.753ZM200.664 144.659L199.725 144.408C197.65 143.854 196.248 143.058 195.519 142.019C194.787 140.991 194.652 139.614 195.113 137.886C195.574 136.159 196.377 135.032 197.524 134.506C198.667 133.991 200.294 134.015 202.404 134.578L203.308 134.82C205.233 135.333 206.561 136.104 207.293 137.131C208.022 138.17 208.16 139.536 207.709 141.229C207.254 142.933 206.444 144.058 205.28 144.605C204.116 145.151 202.577 145.169 200.664 144.659ZM200.422 142.004L201.066 142.176C202.179 142.473 203.103 142.571 203.838 142.469C204.69 142.348 205.258 141.755 205.543 140.688C205.831 139.61 205.635 138.806 204.957 138.277C204.402 137.844 203.55 137.474 202.402 137.167L201.759 136.996C200.263 136.597 199.199 136.536 198.566 136.814C198.302 136.918 198.047 137.105 197.802 137.374C197.564 137.659 197.387 138.021 197.269 138.462C197.149 138.914 197.122 139.317 197.189 139.67C197.256 140.023 197.377 140.316 197.551 140.549C197.724 140.782 197.979 140.992 198.313 141.181C198.838 141.495 199.541 141.769 200.422 142.004ZM203.142 157.924L192.012 154.954C191.629 154.852 191.329 154.648 191.113 154.341C190.908 154.038 190.848 153.73 190.931 153.417C191.145 152.617 191.783 152.086 192.847 151.823L200.684 149.332L192.736 147.211L193.381 144.793L205.764 148.098L205.142 150.428L195.683 153.344L203.787 155.506L203.142 157.924ZM198.168 167.909L199.054 164.587L188.828 161.858L189.473 159.441L199.699 162.17L200.581 158.865L202.737 159.441L200.324 168.484L198.168 167.909ZM184.933 176.455L185.606 173.933L187.931 173.808L189.04 169.652L187.082 168.403L187.754 165.881L198.036 172.872C198.383 173.151 198.605 173.415 198.7 173.664C198.792 173.924 198.796 174.211 198.713 174.524C198.629 174.837 198.493 175.068 198.304 175.216C198.113 175.376 197.788 175.476 197.33 175.515L184.933 176.455ZM190.114 173.795L195.408 173.642L190.912 170.803L190.114 173.795ZM192.557 188.935L193.444 185.613L183.217 182.884L183.862 180.467L194.089 183.196L194.97 179.891L197.127 180.467L194.714 189.51L192.557 188.935ZM189.906 198.87L190.792 195.549L180.566 192.82L181.211 190.403L191.437 193.131L192.319 189.827L194.476 190.402L192.063 199.446L189.906 198.87ZM176.671 207.416L177.344 204.895L179.669 204.77L180.778 200.613L178.82 199.364L179.493 196.842L189.774 203.833C190.122 204.112 190.343 204.376 190.438 204.625C190.53 204.886 190.534 205.173 190.451 205.486C190.367 205.799 190.231 206.03 190.043 206.178C189.851 206.338 189.526 206.438 189.069 206.477L176.671 207.416ZM181.852 204.756L187.147 204.604L182.65 201.765L181.852 204.756ZM179.347 216.657L178.749 218.901C177.172 218.48 176.065 217.763 175.429 216.748C174.793 215.734 174.667 214.508 175.051 213.07C175.895 209.905 178.179 208.819 181.9 209.812L182.944 210.091C185.877 210.873 187.498 212.175 187.807 213.996C187.939 214.715 187.884 215.526 187.642 216.43C187.29 217.752 186.638 218.727 185.688 219.355C184.747 219.998 183.592 220.137 182.224 219.772L182.827 217.511C183.545 217.566 184.121 217.478 184.556 217.246C184.99 217.014 185.3 216.55 185.486 215.855C185.702 215.043 185.608 214.372 185.203 213.842C184.918 213.468 184.347 213.141 183.49 212.863C183.218 212.765 182.844 212.653 182.368 212.527L181.29 212.239C179.957 211.883 178.997 211.826 178.411 212.067C177.822 212.319 177.421 212.846 177.207 213.646C176.991 214.457 177.063 215.073 177.423 215.492C177.791 215.925 178.433 216.314 179.347 216.657ZM172.754 222.097L173.399 219.679L185.782 222.984L185.137 225.401L172.754 222.097Z" fill="white"/>
<defs>
<clipPath id="clip0_484_1657">
<rect width="75.6434" height="75.6434" fill="white" transform="translate(143.527 166.582) rotate(-165)"/>
</clipPath>
</defs>
</svg>
