<svg width="158" height="159" viewBox="0 0 158 159" fill="none" xmlns="http://www.w3.org/2000/svg">
<path d="M111.917 92.2031V111.953C111.917 117.191 109.836 122.215 106.132 125.918C102.429 129.622 97.405 131.703 92.167 131.703H52.667C47.429 131.703 42.4055 129.622 38.7016 125.918C34.9978 122.215 32.917 117.191 32.917 111.953V92.2031H111.917Z" fill="#5A171C"/>
<path d="M111.917 59.2871V118.537C111.917 123.775 109.836 128.799 106.132 132.502C102.429 136.206 97.405 138.287 92.167 138.287H52.667C47.429 138.287 42.4055 136.206 38.7016 132.502C34.9978 128.799 32.917 123.775 32.917 118.537V59.2871H111.917Z" stroke="black" stroke-width="2" stroke-linecap="round" stroke-linejoin="round"/>
<path d="M111.917 92.2038H131.667C135.288 92.2038 138.25 89.2413 138.25 85.6204V65.8704C138.25 62.2496 135.288 59.2871 131.667 59.2871H111.917" stroke="black" stroke-width="2" stroke-linecap="round" stroke-linejoin="round"/>
<mask id="mask0_256_1410" style="mask-type:alpha" maskUnits="userSpaceOnUse" x="38" y="0" width="69" height="106">
<path d="M52.6667 0.0371094C52.6667 13.2038 39.5 13.2038 39.5 26.3704C39.5 39.5371 52.6667 39.5371 52.6667 52.7038C52.6667 65.8704 39.5 65.8704 39.5 79.0371C39.5 92.2038 52.6667 92.2038 52.6667 105.37M79 0.0371094C79 13.2038 65.8333 13.2038 65.8333 26.3704C65.8333 39.5371 79 39.5371 79 52.7038C79 65.8704 65.8333 65.8704 65.8333 79.0371C65.8333 92.2038 79 92.2038 79 105.37M105.333 0.0371094C105.333 13.2038 92.1667 13.2038 92.1667 26.3704C92.1667 39.5371 105.333 39.5371 105.333 52.7038C105.333 65.8704 92.1667 65.8704 92.1667 79.0371C92.1667 92.2038 105.333 92.2038 105.333 105.37" stroke="white" stroke-width="2"/>
</mask>
<g mask="url(#mask0_256_1410)">
<path d="M158 13.2031H0V46.1198H158V13.2031Z" fill="white"/>
</g>
</svg>
