<?xml version="1.0" encoding="UTF-8" standalone="no"?>
<!DOCTYPE svg PUBLIC "-//W3C//DTD SVG 1.1//EN" "http://www.w3.org/Graphics/SVG/1.1/DTD/svg11.dtd">
<svg width="100%" height="100%" viewBox="0 0 721 721" version="1.1" xmlns="http://www.w3.org/2000/svg" xmlns:xlink="http://www.w3.org/1999/xlink" xml:space="preserve" xmlns:serif="http://www.serif.com/" style="fill-rule:evenodd;clip-rule:evenodd;stroke-linecap:round;">
    <g transform="matrix(1,0,0,1,-8942,-1299)">
        <g transform="matrix(1,0,0,1,7198.7,397.312)">
            <g id="Dark---Only-Text" serif:id="Dark - Only Text" transform="matrix(1,0,0,1,1743.88,901.983)">
                <rect x="0" y="0" width="720" height="720" style="fill:rgb(29,29,29);"/>
                <g transform="matrix(2.92844,0,0,2.92844,-92.2972,298.325)">
                    <g>
                        <path id="Iniziali" d="M56.34,25L54.9,12.13L57.78,12.13L58.842,21.526L62.424,18.772L62.424,12.13L65.304,12.13L65.304,18.79L68.85,21.526L69.93,12.13L72.81,12.13L71.37,25L68.958,25L63.864,20.878L58.752,25L56.34,25ZM107.705,25L113.501,12.13L117.947,12.13L123.743,25L120.611,25L119.387,22.282L112.061,22.282L110.837,25L107.705,25ZM113.105,19.942L118.343,19.942L115.841,14.38L115.607,14.38L113.105,19.942ZM198.117,25L198.117,12.166L208.953,12.13C210.381,12.13 211.437,12.43 212.121,13.03C212.817,13.618 213.165,14.506 213.165,15.694C213.165,16.882 212.769,17.752 211.977,18.304C212.505,18.592 212.895,18.976 213.147,19.456C213.399,19.924 213.525,20.53 213.525,21.274C213.525,22.486 213.177,23.41 212.481,24.046C211.797,24.67 210.741,24.982 209.313,24.982L198.117,25ZM208.611,14.434L200.997,14.434L200.997,17.314L208.611,17.314C209.703,17.314 210.249,16.822 210.249,15.838C210.249,14.902 209.703,14.434 208.611,14.434ZM208.971,19.618L200.997,19.618L200.997,22.678L208.971,22.678C210.063,22.678 210.609,22.162 210.609,21.13C210.609,20.122 210.063,19.618 208.971,19.618Z" style="fill:rgb(246,224,119);fill-rule:nonzero;"/>
                        <path id="testo" d="M79.447,25.09C77.839,25.09 76.585,24.694 75.685,23.902C74.785,23.098 74.335,21.922 74.335,20.374C74.335,18.814 74.785,17.638 75.685,16.846C76.585,16.042 77.839,15.64 79.447,15.64L83.947,15.64C85.003,15.64 85.807,15.892 86.359,16.396C86.923,16.888 87.205,17.596 87.205,18.52C87.205,20.404 86.119,21.346 83.947,21.346L77.143,21.346C77.395,22.462 78.163,23.02 79.447,23.02L86.737,23.02L86.737,25.09L79.447,25.09ZM79.447,17.71C78.211,17.71 77.449,18.232 77.161,19.276L83.821,19.276C84.061,19.276 84.247,19.204 84.379,19.06C84.523,18.916 84.595,18.718 84.595,18.466C84.595,17.962 84.337,17.71 83.821,17.71L79.447,17.71ZM88.828,25L88.828,12.13L91.438,12.13L91.438,25L88.828,25ZM89.278,25L89.278,22.93L95.488,22.93C96.268,22.93 96.862,22.72 97.27,22.3C97.69,21.868 97.9,21.226 97.9,20.374C97.9,19.51 97.69,18.868 97.27,18.448C96.862,18.016 96.268,17.8 95.488,17.8L89.458,17.8L89.458,15.73L95.488,15.73C97.096,15.73 98.35,16.126 99.25,16.918C100.15,17.71 100.6,18.862 100.6,20.374C100.6,21.874 100.15,23.02 99.25,23.812C98.35,24.604 97.096,25 95.488,25L89.278,25ZM124.916,25L124.916,15.73L132.008,15.73C133.052,15.73 133.82,15.994 134.312,16.522C134.804,17.038 135.05,17.722 135.05,18.574L135.05,20.5L132.404,20.5L132.404,18.898C132.404,18.178 132.044,17.818 131.324,17.818L127.562,17.818L127.562,25L124.916,25ZM141.306,25C140.262,25 139.494,24.742 139.002,24.226C138.51,23.698 138.264,23.008 138.264,22.156L138.264,17.8L135.582,17.8L135.582,15.73L138.264,15.73L138.264,12.886L140.874,12.886L140.874,15.73L144.726,15.73L144.726,17.8L140.874,17.8L140.874,21.832C140.874,22.564 141.234,22.93 141.954,22.93L145.23,22.93L145.23,25L141.306,25ZM146.572,25L146.572,15.73L149.182,15.73L149.182,25L146.572,25ZM146.554,14.2L146.554,12.166L149.2,12.166L149.2,14.2L146.554,14.2ZM150.854,25.09L150.854,23.02L159.674,23.02C160.178,23.02 160.43,22.738 160.43,22.174C160.43,21.622 160.178,21.346 159.674,21.346L153.968,21.346C152.9,21.346 152.09,21.106 151.538,20.626C150.986,20.134 150.71,19.432 150.71,18.52C150.71,17.596 150.986,16.888 151.538,16.396C152.102,15.892 152.912,15.64 153.968,15.64L162.176,15.64L162.176,17.71L154.094,17.71C153.578,17.71 153.32,17.962 153.32,18.466C153.32,18.718 153.392,18.916 153.536,19.06C153.68,19.204 153.866,19.276 154.094,19.276L160.142,19.276C161.078,19.276 161.792,19.522 162.284,20.014C162.788,20.494 163.04,21.196 163.04,22.12C163.04,23.056 162.788,23.788 162.284,24.316C161.78,24.832 161.066,25.09 160.142,25.09L150.854,25.09ZM167.038,25C166.066,25 165.322,24.754 164.806,24.262C164.29,23.77 164.032,23.068 164.032,22.156C164.032,21.256 164.29,20.56 164.806,20.068C165.322,19.576 166.066,19.33 167.038,19.33L173.95,19.33L173.95,18.898C173.95,18.166 173.59,17.8 172.87,17.8L165.238,17.8L165.238,15.73L173.554,15.73C174.646,15.73 175.42,15.982 175.876,16.486C176.332,16.978 176.56,17.674 176.56,18.574L176.56,25L167.038,25ZM167.506,22.93L173.95,22.93L173.95,21.4L167.506,21.4C167.278,21.4 167.098,21.472 166.966,21.616C166.846,21.748 166.786,21.928 166.786,22.156C166.786,22.384 166.846,22.57 166.966,22.714C167.098,22.858 167.278,22.93 167.506,22.93ZM178.547,25L178.547,15.73L186.629,15.73C187.685,15.73 188.453,15.994 188.933,16.522C189.425,17.038 189.671,17.722 189.671,18.574L189.671,25L187.061,25L187.061,18.88C187.061,18.16 186.701,17.8 185.981,17.8L181.157,17.8L181.157,25L178.547,25ZM215.232,25L215.232,15.73L222.324,15.73C223.368,15.73 224.136,15.994 224.628,16.522C225.12,17.038 225.366,17.722 225.366,18.574L225.366,20.5L222.72,20.5L222.72,18.898C222.72,18.178 222.36,17.818 221.64,17.818L217.878,17.818L217.878,25L215.232,25ZM231.902,25.09C230.294,25.09 229.04,24.694 228.14,23.902C227.24,23.098 226.79,21.922 226.79,20.374C226.79,18.814 227.24,17.638 228.14,16.846C229.04,16.042 230.294,15.64 231.902,15.64L235.232,15.64C236.84,15.64 238.094,16.042 238.994,16.846C239.894,17.638 240.344,18.814 240.344,20.374C240.344,21.922 239.894,23.098 238.994,23.902C238.094,24.694 236.84,25.09 235.232,25.09L231.902,25.09ZM231.902,23.02L235.232,23.02C236.012,23.02 236.606,22.804 237.014,22.372C237.434,21.94 237.644,21.274 237.644,20.374C237.644,19.462 237.434,18.79 237.014,18.358C236.606,17.926 236.012,17.71 235.232,17.71L231.902,17.71C231.122,17.71 230.522,17.926 230.102,18.358C229.694,18.79 229.49,19.462 229.49,20.374C229.49,21.274 229.694,21.94 230.102,22.372C230.522,22.804 231.122,23.02 231.902,23.02ZM241.663,25.09L241.663,23.02L250.483,23.02C250.987,23.02 251.239,22.738 251.239,22.174C251.239,21.622 250.987,21.346 250.483,21.346L244.777,21.346C243.709,21.346 242.899,21.106 242.347,20.626C241.795,20.134 241.519,19.432 241.519,18.52C241.519,17.596 241.795,16.888 242.347,16.396C242.911,15.892 243.721,15.64 244.777,15.64L252.985,15.64L252.985,17.71L244.903,17.71C244.387,17.71 244.129,17.962 244.129,18.466C244.129,18.718 244.201,18.916 244.345,19.06C244.489,19.204 244.675,19.276 244.903,19.276L250.951,19.276C251.887,19.276 252.601,19.522 253.093,20.014C253.597,20.494 253.849,21.196 253.849,22.12C253.849,23.056 253.597,23.788 253.093,24.316C252.589,24.832 251.875,25.09 250.951,25.09L241.663,25.09Z" style="fill:rgb(250,248,229);fill-rule:nonzero;"/>
                        <g id="Linea" transform="matrix(1,0,0,1,0,-6.00852)">
                            <path d="M56,36L254,35" style="fill:rgb(246,224,119);fill-rule:nonzero;stroke:rgb(246,224,119);stroke-width:1px;"/>
                        </g>
                    </g>
                </g>
            </g>
        </g>
    </g>
</svg>
