<svg width="293" height="64" viewBox="0 0 293 64" fill="none" xmlns="http://www.w3.org/2000/svg">
<rect width="66.4951" height="16.7206" transform="matrix(-0.576493 -0.817102 -0.817102 0.576493 292.665 54.3335)" fill="#F6E077"/>
<rect width="66.4951" height="16.7206" transform="matrix(-0.576493 -0.817102 -0.817102 0.576493 274.109 54.3335)" fill="#F6E077"/>
<rect width="66.4951" height="16.7206" transform="matrix(-0.576493 -0.817102 -0.817102 0.576493 255.553 54.3335)" fill="#F6E077"/>
<rect width="66.4951" height="16.7206" transform="matrix(-0.576493 -0.817102 -0.817102 0.576493 236.997 54.3335)" fill="#F6E077"/>
<rect width="66.4951" height="16.7206" transform="matrix(-0.576493 -0.817102 -0.817102 0.576493 218.441 54.3335)" fill="#F6E077"/>
<rect width="66.4951" height="16.7206" transform="matrix(-0.576493 -0.817102 -0.817102 0.576493 199.885 54.3335)" fill="#F6E077"/>
<rect width="66.4951" height="16.7206" transform="matrix(-0.576493 -0.817102 -0.817102 0.576493 181.329 54.3335)" fill="#F6E077"/>
<rect width="66.4951" height="16.7206" transform="matrix(-0.576493 -0.817102 -0.817102 0.576493 162.773 54.3335)" fill="#F6E077"/>
<rect width="66.4951" height="16.7206" transform="matrix(-0.576493 -0.817102 -0.817102 0.576493 144.777 54.3335)" fill="#F6E077"/>
<rect width="66.4951" height="16.7206" transform="matrix(-0.576493 -0.817102 -0.817102 0.576493 126.222 54.3335)" fill="#F6E077"/>
<rect width="66.4951" height="16.7206" transform="matrix(-0.576493 -0.817102 -0.817102 0.576493 107.665 54.3335)" fill="#F6E077"/>
<rect width="66.4951" height="16.7206" transform="matrix(-0.576493 -0.817102 -0.817102 0.576493 89.1094 54.3335)" fill="#F6E077"/>
<rect width="66.4951" height="16.7206" transform="matrix(-0.576493 -0.817102 -0.817102 0.576493 70.5537 54.3335)" fill="#F6E077"/>
<rect width="66.4951" height="16.7206" transform="matrix(-0.576493 -0.817102 -0.817102 0.576493 51.998 54.3335)" fill="#F6E077"/>
</svg>
