<svg width="70" height="20" viewBox="0 0 70 20" fill="none" xmlns="http://www.w3.org/2000/svg">
<rect width="20.2456" height="5.18096" transform="matrix(-0.596632 -0.802515 -0.830944 0.556357 69.251 16.2471)" fill="#F6E077"/>
<rect width="20.2456" height="5.18096" transform="matrix(-0.596632 -0.802515 -0.830944 0.556357 63.4043 16.2471)" fill="#F6E077"/>
<rect width="20.2456" height="5.18096" transform="matrix(-0.596632 -0.802515 -0.830944 0.556357 57.5566 16.2471)" fill="#F6E077"/>
<rect width="20.2456" height="5.18096" transform="matrix(-0.596632 -0.802515 -0.830944 0.556357 51.71 16.2471)" fill="#F6E077"/>
<rect width="20.2456" height="5.18096" transform="matrix(-0.596632 -0.802515 -0.830944 0.556357 45.8623 16.2471)" fill="#F6E077"/>
<rect width="20.2456" height="5.18096" transform="matrix(-0.596632 -0.802515 -0.830944 0.556357 40.0156 16.2471)" fill="#F6E077"/>
<rect width="20.2456" height="5.18096" transform="matrix(-0.596632 -0.802515 -0.830944 0.556357 34.1689 16.2471)" fill="#F6E077"/>
<rect width="20.2456" height="5.18096" transform="matrix(-0.596632 -0.802515 -0.830944 0.556357 28.3213 16.2471)" fill="#F6E077"/>
<rect width="20.2456" height="5.18096" transform="matrix(-0.596632 -0.802515 -0.830944 0.556357 22.4746 16.2471)" fill="#F6E077"/>
<rect width="20.2456" height="5.18096" transform="matrix(-0.596632 -0.802515 -0.830944 0.556357 16.6279 16.2471)" fill="#F6E077"/>
</svg>
