<svg width="349" height="64" viewBox="0 0 349 64" fill="none" xmlns="http://www.w3.org/2000/svg">
<rect width="66.4951" height="16.7206" transform="matrix(-0.576493 -0.817102 -0.817102 0.576493 348.665 54.3335)" fill="#F6E077"/>
<rect width="66.4951" height="16.7206" transform="matrix(-0.576493 -0.817102 -0.817102 0.576493 330.109 54.3335)" fill="#F6E077"/>
<rect width="66.4951" height="16.7206" transform="matrix(-0.576493 -0.817102 -0.817102 0.576493 311.553 54.3335)" fill="#F6E077"/>
<rect width="66.4951" height="16.7206" transform="matrix(-0.576493 -0.817102 -0.817102 0.576493 292.997 54.3335)" fill="#F6E077"/>
<rect width="66.4951" height="16.7206" transform="matrix(-0.576493 -0.817102 -0.817102 0.576493 274.441 54.3335)" fill="#F6E077"/>
<rect width="66.4951" height="16.7206" transform="matrix(-0.576493 -0.817102 -0.817102 0.576493 255.885 54.3335)" fill="#F6E077"/>
<rect width="66.4951" height="16.7206" transform="matrix(-0.576493 -0.817102 -0.817102 0.576493 237.329 54.3335)" fill="#F6E077"/>
<rect width="66.4951" height="16.7206" transform="matrix(-0.576493 -0.817102 -0.817102 0.576493 218.773 54.3335)" fill="#F6E077"/>
<rect width="66.4951" height="16.7206" transform="matrix(-0.576493 -0.817102 -0.817102 0.576493 200.777 54.3335)" fill="#F6E077"/>
<rect width="66.4951" height="16.7206" transform="matrix(-0.576493 -0.817102 -0.817102 0.576493 182.222 54.3335)" fill="#F6E077"/>
<rect width="66.4951" height="16.7206" transform="matrix(-0.576493 -0.817102 -0.817102 0.576493 163.665 54.3335)" fill="#F6E077"/>
<rect width="66.4951" height="16.7206" transform="matrix(-0.576493 -0.817102 -0.817102 0.576493 145.109 54.3335)" fill="#F6E077"/>
<rect width="66.4951" height="16.7206" transform="matrix(-0.576493 -0.817102 -0.817102 0.576493 126.554 54.3335)" fill="#F6E077"/>
<rect width="66.4951" height="16.7206" transform="matrix(-0.576493 -0.817102 -0.817102 0.576493 107.998 54.3335)" fill="#F6E077"/>
<rect width="66.4951" height="16.7206" transform="matrix(-0.576493 -0.817102 -0.817102 0.576493 89.1074 54.3335)" fill="#F6E077"/>
<rect width="66.4951" height="16.7206" transform="matrix(-0.576493 -0.817102 -0.817102 0.576493 70.5518 54.3335)" fill="#F6E077"/>
<rect width="66.4951" height="16.7206" transform="matrix(-0.576493 -0.817102 -0.817102 0.576493 51.9961 54.3335)" fill="#F6E077"/>
</svg>
