<svg width="233" height="42" viewBox="0 0 233 42" fill="none" xmlns="http://www.w3.org/2000/svg">
<rect width="42.7517" height="10.7502" transform="matrix(-0.576493 -0.817102 -0.817102 0.576493 157.73 34.9326)" fill="#F6E077"/>
<rect width="42.7517" height="10.7502" transform="matrix(-0.576493 -0.817102 -0.817102 0.576493 145.301 34.9326)" fill="#F6E077"/>
<rect width="42.7517" height="10.7502" transform="matrix(-0.576493 -0.817102 -0.817102 0.576493 132.87 34.9326)" fill="#F6E077"/>
<rect width="42.7517" height="10.7502" transform="matrix(-0.576493 -0.817102 -0.817102 0.576493 120.44 34.9326)" fill="#F6E077"/>
<rect width="42.7517" height="10.7502" transform="matrix(-0.576493 -0.817102 -0.817102 0.576493 108.011 34.9326)" fill="#F6E077"/>
<rect width="42.7517" height="10.7502" transform="matrix(-0.576493 -0.817102 -0.817102 0.576493 95.5801 34.9326)" fill="#F6E077"/>
<rect width="42.7517" height="10.7502" transform="matrix(-0.576493 -0.817102 -0.817102 0.576493 83.1504 34.9326)" fill="#F6E077"/>
<rect width="42.7517" height="10.7502" transform="matrix(-0.576493 -0.817102 -0.817102 0.576493 70.7207 34.9326)" fill="#F6E077"/>
<rect width="42.7517" height="10.7502" transform="matrix(-0.576493 -0.817102 -0.817102 0.576493 58.29 34.9326)" fill="#F6E077"/>
<rect width="42.7517" height="10.7502" transform="matrix(-0.576493 -0.817102 -0.817102 0.576493 45.8604 34.9326)" fill="#F6E077"/>
<rect width="42.7517" height="10.7502" transform="matrix(-0.576493 -0.817102 -0.817102 0.576493 33.4307 34.9326)" fill="#F6E077"/>
<rect width="42.7517" height="10.7502" transform="matrix(-0.576493 -0.817102 -0.817102 0.576493 232.655 34.9326)" fill="#F6E077"/>
<rect width="42.7517" height="10.7502" transform="matrix(-0.576493 -0.817102 -0.817102 0.576493 220.226 34.9326)" fill="#F6E077"/>
<rect width="42.7517" height="10.7502" transform="matrix(-0.576493 -0.817102 -0.817102 0.576493 207.795 34.9326)" fill="#F6E077"/>
<rect width="42.7517" height="10.7502" transform="matrix(-0.576493 -0.817102 -0.817102 0.576493 195.365 34.9326)" fill="#F6E077"/>
<rect width="42.7517" height="10.7502" transform="matrix(-0.576493 -0.817102 -0.817102 0.576493 182.936 34.9326)" fill="#F6E077"/>
<rect width="42.7517" height="10.7502" transform="matrix(-0.576493 -0.817102 -0.817102 0.576493 170.505 34.9326)" fill="#F6E077"/>
</svg>
