<svg width="479" height="64" viewBox="0 0 479 64" fill="none" xmlns="http://www.w3.org/2000/svg">
<rect width="66.4951" height="16.7206" transform="matrix(-0.576493 -0.817102 -0.817102 0.576493 478.663 54.334)" fill="#F6E077"/>
<rect width="66.4951" height="16.7206" transform="matrix(-0.576493 -0.817102 -0.817102 0.576493 460.107 54.334)" fill="#F6E077"/>
<rect width="66.4951" height="16.7206" transform="matrix(-0.576493 -0.817102 -0.817102 0.576493 441.552 54.334)" fill="#F6E077"/>
<rect width="66.4951" height="16.7206" transform="matrix(-0.576493 -0.817102 -0.817102 0.576493 422.996 54.334)" fill="#F6E077"/>
<rect width="66.4951" height="16.7206" transform="matrix(-0.576493 -0.817102 -0.817102 0.576493 404.439 54.334)" fill="#F6E077"/>
<rect width="66.4951" height="16.7206" transform="matrix(-0.576493 -0.817102 -0.817102 0.576493 385.884 54.334)" fill="#F6E077"/>
<rect width="66.4951" height="16.7206" transform="matrix(-0.576493 -0.817102 -0.817102 0.576493 367.328 54.334)" fill="#F6E077"/>
<rect width="66.4951" height="16.7206" transform="matrix(-0.576493 -0.817102 -0.817102 0.576493 348.771 54.334)" fill="#F6E077"/>
<rect width="66.4951" height="16.7206" transform="matrix(-0.576493 -0.817102 -0.817102 0.576493 329.775 54.333)" fill="#F6E077"/>
<rect width="66.4951" height="16.7206" transform="matrix(-0.576493 -0.817102 -0.817102 0.576493 311.22 54.333)" fill="#F6E077"/>
<rect width="66.4951" height="16.7206" transform="matrix(-0.576493 -0.817102 -0.817102 0.576493 292.663 54.333)" fill="#F6E077"/>
<rect width="66.4951" height="16.7206" transform="matrix(-0.576493 -0.817102 -0.817102 0.576493 274.107 54.333)" fill="#F6E077"/>
<rect width="66.4951" height="16.7206" transform="matrix(-0.576493 -0.817102 -0.817102 0.576493 255.552 54.333)" fill="#F6E077"/>
<rect width="66.4951" height="16.7206" transform="matrix(-0.576493 -0.817102 -0.817102 0.576493 236.996 54.333)" fill="#F6E077"/>
<rect width="66.4951" height="16.7206" transform="matrix(-0.576493 -0.817102 -0.817102 0.576493 218.439 54.333)" fill="#F6E077"/>
<rect width="66.4951" height="16.7206" transform="matrix(-0.576493 -0.817102 -0.817102 0.576493 199.884 54.333)" fill="#F6E077"/>
<rect width="66.4951" height="16.7206" transform="matrix(-0.576493 -0.817102 -0.817102 0.576493 181.328 54.333)" fill="#F6E077"/>
<rect width="66.4951" height="16.7206" transform="matrix(-0.576493 -0.817102 -0.817102 0.576493 162.771 54.333)" fill="#F6E077"/>
<rect width="66.4951" height="16.7206" transform="matrix(-0.576493 -0.817102 -0.817102 0.576493 144.775 54.334)" fill="#F6E077"/>
<rect width="66.4951" height="16.7206" transform="matrix(-0.576493 -0.817102 -0.817102 0.576493 126.22 54.334)" fill="#F6E077"/>
<rect width="66.4951" height="16.7206" transform="matrix(-0.576493 -0.817102 -0.817102 0.576493 107.663 54.334)" fill="#F6E077"/>
<rect width="66.4951" height="16.7206" transform="matrix(-0.576493 -0.817102 -0.817102 0.576493 89.1074 54.334)" fill="#F6E077"/>
<rect width="66.4951" height="16.7206" transform="matrix(-0.576493 -0.817102 -0.817102 0.576493 70.5518 54.334)" fill="#F6E077"/>
<rect width="66.4951" height="16.7206" transform="matrix(-0.576493 -0.817102 -0.817102 0.576493 51.9961 54.334)" fill="#F6E077"/>
</svg>
