<svg width="201" height="50" viewBox="0 0 201 50" fill="none" xmlns="http://www.w3.org/2000/svg">
<rect width="50.7436" height="12.7598" transform="matrix(-0.576493 -0.817102 -0.817102 0.576493 200.84 41.4629)" fill="#95363E"/>
<rect width="50.7436" height="12.7598" transform="matrix(-0.576493 -0.817102 -0.817102 0.576493 186.68 41.4629)" fill="#95363E"/>
<rect width="51.4412" height="12.9352" transform="matrix(-0.576493 -0.817102 -0.817102 0.576493 172 42.0327)" fill="#95363E"/>
<rect width="51.4412" height="12.9352" transform="matrix(-0.576493 -0.817102 -0.817102 0.576493 157.645 42.0327)" fill="#95363E"/>
<rect width="51.4412" height="12.9352" transform="matrix(-0.576493 -0.817102 -0.817102 0.576493 143.29 42.0327)" fill="#95363E"/>
<rect width="51.4412" height="12.9352" transform="matrix(-0.576493 -0.817102 -0.817102 0.576493 128.935 42.0327)" fill="#95363E"/>
<rect width="51.4412" height="12.9352" transform="matrix(-0.576493 -0.817102 -0.817102 0.576493 114.579 42.0327)" fill="#95363E"/>
<rect width="51.4412" height="12.9352" transform="matrix(-0.576493 -0.817102 -0.817102 0.576493 100.225 42.0327)" fill="#95363E"/>
<rect width="51.4412" height="12.9352" transform="matrix(-0.576493 -0.817102 -0.817102 0.576493 84.5791 42.0327)" fill="#95363E"/>
<rect width="51.4412" height="12.9352" transform="matrix(-0.576493 -0.817102 -0.817102 0.576493 70.2246 42.0327)" fill="#95363E"/>
<rect width="51.4412" height="12.9352" transform="matrix(-0.576493 -0.817102 -0.817102 0.576493 55.2246 42.0327)" fill="#95363E"/>
<rect width="51.4412" height="12.9352" transform="matrix(-0.576493 -0.817102 -0.817102 0.576493 40.2246 42.0327)" fill="#95363E"/>
</svg>
