<svg width="428" height="64" viewBox="0 0 428 64" fill="none" xmlns="http://www.w3.org/2000/svg">
<rect width="67.2786" height="17.1141" transform="matrix(-0.589749 -0.807587 -0.826294 0.563238 428 54.3335)" fill="#F6E077"/>
<rect width="67.2786" height="17.1141" transform="matrix(-0.589749 -0.807587 -0.826294 0.563238 408.794 54.3335)" fill="#F6E077"/>
<rect width="67.2786" height="17.1141" transform="matrix(-0.589749 -0.807587 -0.826294 0.563238 389.588 54.3335)" fill="#F6E077"/>
<rect width="67.2786" height="17.1141" transform="matrix(-0.589749 -0.807587 -0.826294 0.563238 370.381 54.3335)" fill="#F6E077"/>
<rect width="67.2786" height="17.1141" transform="matrix(-0.589749 -0.807587 -0.826294 0.563238 351.175 54.3335)" fill="#F6E077"/>
<rect width="67.2786" height="17.1141" transform="matrix(-0.589749 -0.807587 -0.826294 0.563238 335.421 54.3335)" fill="#F6E077"/>
<rect width="67.2786" height="17.1141" transform="matrix(-0.589749 -0.807587 -0.826294 0.563238 316.215 54.3335)" fill="#F6E077"/>
<rect width="67.2786" height="17.1141" transform="matrix(-0.589749 -0.807587 -0.826294 0.563238 297.008 54.3335)" fill="#F6E077"/>
<rect width="67.2786" height="17.1141" transform="matrix(-0.589749 -0.807587 -0.826294 0.563238 277.802 54.3335)" fill="#F6E077"/>
<rect width="67.2786" height="17.1141" transform="matrix(-0.589749 -0.807587 -0.826294 0.563238 258.596 54.3335)" fill="#F6E077"/>
<rect width="67.2786" height="17.1141" transform="matrix(-0.589749 -0.807587 -0.826294 0.563238 239.39 54.3335)" fill="#F6E077"/>
<rect width="67.2786" height="17.1141" transform="matrix(-0.589749 -0.807587 -0.826294 0.563238 223.636 54.3335)" fill="#F6E077"/>
<rect width="67.2786" height="17.1141" transform="matrix(-0.589749 -0.807587 -0.826294 0.563238 204.43 54.3335)" fill="#F6E077"/>
<rect width="67.2786" height="17.1141" transform="matrix(-0.589749 -0.807587 -0.826294 0.563238 185.224 54.3335)" fill="#F6E077"/>
<rect width="67.2786" height="17.1141" transform="matrix(-0.589749 -0.807587 -0.826294 0.563238 166.017 54.3335)" fill="#F6E077"/>
<rect width="67.2786" height="17.1141" transform="matrix(-0.589749 -0.807587 -0.826294 0.563238 146.811 54.3335)" fill="#F6E077"/>
<rect width="67.2786" height="17.1141" transform="matrix(-0.589749 -0.807587 -0.826294 0.563238 127.604 54.3335)" fill="#F6E077"/>
<rect width="67.2786" height="17.1141" transform="matrix(-0.589749 -0.807587 -0.826294 0.563238 111.851 54.3335)" fill="#F6E077"/>
<rect width="67.2786" height="17.1141" transform="matrix(-0.589749 -0.807587 -0.826294 0.563238 92.6445 54.3335)" fill="#F6E077"/>
<rect width="67.2786" height="17.1141" transform="matrix(-0.589749 -0.807587 -0.826294 0.563238 73.4385 54.3335)" fill="#F6E077"/>
<rect width="67.2786" height="17.1141" transform="matrix(-0.589749 -0.807587 -0.826294 0.563238 54.2314 54.3335)" fill="#F6E077"/>
</svg>
