<svg width="191" height="32" viewBox="0 0 191 32" fill="none" xmlns="http://www.w3.org/2000/svg">
<rect width="31.1036" height="7.36758" transform="matrix(-0.507752 -0.861503 -0.763979 0.645241 190.483 26.7959)" fill="#F6E077"/>
<rect width="31.1036" height="7.36758" transform="matrix(-0.507752 -0.861503 -0.763979 0.645241 182.062 26.7959)" fill="#F6E077"/>
<rect width="31.1036" height="7.36758" transform="matrix(-0.507752 -0.861503 -0.763979 0.645241 173.641 26.7959)" fill="#F6E077"/>
<rect width="31.1036" height="7.36758" transform="matrix(-0.507752 -0.861503 -0.763979 0.645241 165.219 26.7959)" fill="#F6E077"/>
<rect width="31.1036" height="7.36758" transform="matrix(-0.507752 -0.861503 -0.763979 0.645241 156.797 26.7959)" fill="#F6E077"/>
<rect width="31.1036" height="7.36758" transform="matrix(-0.507752 -0.861503 -0.763979 0.645241 148.376 26.7959)" fill="#F6E077"/>
<rect width="31.1036" height="7.36758" transform="matrix(-0.507752 -0.861503 -0.763979 0.645241 139.954 26.7959)" fill="#F6E077"/>
<rect width="31.1036" height="7.36758" transform="matrix(-0.507752 -0.861503 -0.763979 0.645241 131.532 26.7959)" fill="#F6E077"/>
<rect width="31.1036" height="7.36758" transform="matrix(-0.507752 -0.861503 -0.763979 0.645241 123.11 26.7959)" fill="#F6E077"/>
<rect width="31.1036" height="7.36758" transform="matrix(-0.507752 -0.861503 -0.763979 0.645241 114.689 26.7959)" fill="#F6E077"/>
<rect width="31.1036" height="7.36758" transform="matrix(-0.507752 -0.861503 -0.763979 0.645241 106.268 26.7959)" fill="#F6E077"/>
<rect width="31.1036" height="7.36758" transform="matrix(-0.507752 -0.861503 -0.763979 0.645241 97.8457 26.7959)" fill="#F6E077"/>
<rect width="31.1036" height="7.36758" transform="matrix(-0.507752 -0.861503 -0.763979 0.645241 89.4248 26.7959)" fill="#F6E077"/>
<rect width="31.1036" height="7.36758" transform="matrix(-0.507752 -0.861503 -0.763979 0.645241 81.0029 26.7959)" fill="#F6E077"/>
<rect width="31.1036" height="7.36758" transform="matrix(-0.507752 -0.861503 -0.763979 0.645241 72.5811 26.7959)" fill="#F6E077"/>
<rect width="31.1036" height="7.36758" transform="matrix(-0.507752 -0.861503 -0.763979 0.645241 64.1602 26.7959)" fill="#F6E077"/>
<rect width="31.1036" height="7.36758" transform="matrix(-0.507752 -0.861503 -0.763979 0.645241 55.7383 26.7959)" fill="#F6E077"/>
<rect width="31.1036" height="7.36758" transform="matrix(-0.507752 -0.861503 -0.763979 0.645241 47.3164 26.7959)" fill="#F6E077"/>
<rect width="31.1036" height="7.36758" transform="matrix(-0.507752 -0.861503 -0.763979 0.645241 38.8945 26.7959)" fill="#F6E077"/>
<rect width="31.1036" height="7.36758" transform="matrix(-0.507752 -0.861503 -0.763979 0.645241 30.4736 26.7959)" fill="#F6E077"/>
<rect width="31.1036" height="7.36758" transform="matrix(-0.507752 -0.861503 -0.763979 0.645241 22.0518 26.7959)" fill="#F6E077"/>
</svg>
