<svg width="42" height="42" viewBox="0 0 42 42" fill="none" xmlns="http://www.w3.org/2000/svg">
<g clip-path="url(#clip0_1137_6007)">
<path d="M32.0986 12.7466L34.9913 23.5424C35.4708 25.3319 35.2198 27.2386 34.2935 28.8431C33.3671 30.4475 31.8414 31.6182 30.0519 32.0977L19.256 34.9905C17.4665 35.47 15.5598 35.2189 13.9554 34.2926C12.3509 33.3663 11.1802 31.8406 10.7007 30.051L7.80796 19.2552C7.32846 17.4657 7.57948 15.559 8.5058 13.9545C9.43213 12.3501 10.9579 11.1794 12.7474 10.6999L23.5432 7.80712C25.3327 7.32762 27.2395 7.57864 28.8439 8.50497C30.4483 9.43129 31.6191 10.957 32.0986 12.7466Z" stroke="black" stroke-width="2.4" stroke-linecap="round" stroke-linejoin="round" fill="currentColor"/>
<path d="M23.3049 33.906L20.0506 21.7607C19.2594 18.808 19.279 16.182 24.0021 14.9164M17.7132 23.8333L25.8101 21.6638" stroke="black" stroke-width="2.4" stroke-linecap="round" stroke-linejoin="round" fill="currentColor"/>
</g>
<defs>
<clipPath id="clip0_1137_6007">
<rect width="33.53" height="33.53" fill="white" transform="translate(0.232422 8.91016) rotate(-15)"/>
</clipPath>
</defs>
</svg>
