<?xml version="1.0" standalone="no"?>
<!DOCTYPE svg PUBLIC "-//W3C//DTD SVG 20010904//EN"
 "http://www.w3.org/TR/2001/REC-SVG-20010904/DTD/svg10.dtd">
<svg version="1.0" xmlns="http://www.w3.org/2000/svg"
 width="300.000000pt" height="300.000000pt" viewBox="0 0 300.000000 300.000000"
 preserveAspectRatio="xMidYMid meet">
<metadata>
Created by potrace 1.10, written by Peter Selinger 2001-2011
</metadata>
<g transform="translate(0.000000,300.000000) scale(0.100000,-0.100000)"
fill="var(--logo-accent)" stroke="none">
<path d="M1852 2499 l-413 -140 -365 129 -365 129 1 -251 1 -251 -108 -36
-108 -36 -3 -713 c-1 -393 1 -717 6 -722 4 -4 229 66 500 156 l492 165 500
-160 c274 -87 501 -159 502 -159 2 0 3 315 3 700 l0 700 -97 30 -98 31 0 284
c0 265 -1 285 -17 284 -10 0 -204 -63 -431 -140z m403 -164 c0 -135 -2 -245
-5 -245 -3 0 -162 50 -355 111 -192 60 -361 113 -374 117 -18 6 55 34 315 122
187 62 353 119 369 126 17 7 35 13 40 14 6 0 10 -88 10 -245z m-1196 115 c311
-110 319 -114 302 -125 -21 -13 -575 -195 -593 -195 -17 0 -18 15 -18 203 0
188 3 217 20 217 3 0 133 -45 289 -100z m389 -812 l-3 -671 -453 -151 c-249
-84 -454 -151 -455 -150 -1 1 -1 303 1 671 l2 668 448 151 c246 83 450 152
455 152 4 1 6 -300 5 -670z m392 537 c357 -114 397 -125 416 -118 7 3 25 -4
39 -15 14 -12 55 -30 91 -42 l64 -22 0 -648 c0 -357 -4 -651 -9 -654 -7 -5
-186 50 -763 235 l-188 60 0 654 c0 359 -3 661 -7 671 -6 16 -3 15 23 -3 16
-12 167 -65 334 -118z"/>
<path d="M951 1870 c-37 -11 -76 -17 -93 -13 l-30 6 16 -31 c9 -18 28 -39 41
-48 61 -40 211 31 189 90 -8 21 -42 20 -123 -4z"/>
<path d="M1150 1760 c-57 -30 -327 -123 -392 -135 -21 -4 -38 -13 -38 -20 0
-23 36 -45 76 -45 43 0 58 7 66 30 5 13 112 51 242 88 14 4 5 -21 -43 -116
-69 -135 -183 -304 -300 -443 -43 -52 -77 -96 -75 -98 1 -2 20 5 41 15 41 20
166 162 260 296 l55 78 57 -44 c57 -44 208 -126 231 -126 13 0 6 59 -8 70 -4
4 -64 30 -134 60 -71 30 -128 58 -128 62 0 4 18 37 40 73 58 95 130 241 130
265 0 27 -14 25 -80 -10z"/>
<path d="M1898 1943 c-16 -18 -270 -630 -283 -683 -9 -38 37 -77 107 -92 67
-14 77 -8 114 64 13 26 28 48 32 48 22 0 190 -55 203 -66 9 -8 22 -40 30 -71
17 -72 48 -105 118 -127 49 -15 56 -15 78 -1 36 24 36 29 -27 255 -27 96 -74
267 -105 380 -30 113 -63 219 -72 237 -29 58 -159 96 -195 56z m94 -31 c32
-10 60 -20 63 -23 3 -3 56 -190 119 -415 62 -225 117 -417 121 -426 6 -15 -1
-14 -62 5 -37 12 -70 22 -71 23 -2 2 -14 42 -26 89 l-22 87 -124 38 c-69 21
-131 39 -139 41 -9 3 -24 -21 -44 -67 l-29 -71 -68 20 -68 19 105 257 c58 141
121 298 141 348 20 51 39 93 42 93 3 0 31 -8 62 -18z"/>
<path d="M1937 1583 c-26 -64 -46 -117 -45 -118 5 -4 172 -54 174 -52 3 2 -75
279 -79 284 -2 1 -24 -50 -50 -114z m59 -71 c6 -28 4 -32 -14 -32 -29 0 -36
16 -22 51 15 34 27 28 36 -19z"/>
<path d="M1910 601 c0 -6 4 -12 9 -15 5 -3 18 -22 30 -41 l20 -35 -102 -50
c-142 -69 -250 -94 -407 -94 -179 -1 -331 39 -492 127 -44 24 -60 29 -69 20
-20 -20 -3 -38 68 -76 137 -71 353 -127 499 -127 132 0 324 52 461 124 37 20
67 35 68 33 1 -1 12 -19 24 -40 13 -21 25 -36 27 -35 2 2 18 47 37 100 l33 97
-65 6 c-36 3 -83 8 -103 10 -21 3 -38 1 -38 -4z m129 -50 c20 -13 6 -63 -16
-59 -16 3 -36 52 -25 62 8 8 25 7 41 -3z"/>
</g>
</svg>
