<svg width="171" height="114" viewBox="0 0 171 114" fill="none" xmlns="http://www.w3.org/2000/svg">
<path fill-rule="evenodd" clip-rule="evenodd" d="M114.535 93.0767H114.577L117.568 102.925H117.553L120.933 113.955H110.519L108.437 107.069L108.465 107.061L103.904 92.0476L103.897 92.0501L94.696 61.6167H104.894L114.535 93.0767ZM81.3953 61.6167L80.943 63.0466L71.4371 93.7146L53.9099 65.7234L33.2871 106.602L0.856445 0.769531H11.2532L35.7445 79.6054L53.632 45.6398L68.0963 69.896L70.9697 61.6167H81.3953ZM100.396 93.1133L103.377 102.925H95.9268L93.0025 93.0792H100.511L100.396 93.1133ZM130.925 48.1234H135.154C142.459 48.1234 148.39 42.1932 148.39 34.8867C148.39 27.5827 142.459 21.6525 135.154 21.6525H112.691V11.8014C112.691 11.8014 135.779 11.8112 135.81 11.8112H135.842C148.266 12.1779 158.241 22.3761 158.241 34.8867C158.241 40.5505 156.198 45.7401 152.81 49.7563C163.343 53.577 170.878 63.6773 170.878 75.5231C170.878 90.5149 158.814 102.708 143.843 102.923L143.839 102.925H121.401L118.409 93.0767L143.708 93.0743V93.0718C153.288 92.9495 161.027 85.1347 161.027 75.5231C161.027 65.914 153.288 58.0991 143.736 57.9744H143.736H127.933L130.925 48.1234ZM99.6416 44.4738L88.0024 6.49201L72.2335 57.9501H105.073V57.9744H124.101L127.093 48.1234H105.918V48.1404H88.7579V48.1234H85.4447L88.0151 39.5165L89.5138 44.4738H99.6416Z" fill="#F6E077"/>
</svg>
