<svg width="48" height="48" viewBox="0 0 48 48" fill="none" xmlns="http://www.w3.org/2000/svg">
<g clip-path="url(#clip0_856_1804)">
<path fill-rule="evenodd" clip-rule="evenodd" d="M31.248 34.3848H31.2367L28.6074 25.8048H25.826L28.3353 34.1048L28.3373 34.1041L29.5812 38.1988L29.5736 38.2008L30.1415 40.0788H32.9816L32.0597 37.0708H32.0639L31.248 34.3848ZM22.0752 26.1948L22.1985 25.8048H19.3552L18.5715 28.0628L14.6267 21.4474L9.74833 30.7108L3.06887 9.21008H0.233398L9.07813 38.0734L14.7025 26.9248L19.4827 34.5588L22.0752 26.1948ZM28.1935 37.0708L27.3805 34.3948L27.4119 34.3854H25.3641L26.1617 37.0708H28.1935ZM36.8601 22.1248H35.7067L34.8906 24.8114H39.2005H39.2007C41.8055 24.8454 43.9164 26.9768 43.9164 29.5974C43.9164 32.2188 41.8055 34.3501 39.1929 34.3834V34.3841L32.2931 34.3848L33.1091 37.0708H39.2287L39.2297 37.0701C43.3129 37.0114 46.603 33.6861 46.603 29.5974C46.603 26.3668 44.548 23.6121 41.6754 22.5701C42.5994 21.4748 43.1564 20.0594 43.1564 18.5148C43.1564 15.1028 40.4361 12.3214 37.0477 12.2214H37.039L30.7338 12.2188V14.9054H36.8601C38.8524 14.9054 40.4698 16.5228 40.4698 18.5148C40.4698 20.5074 38.8524 22.1248 36.8601 22.1248ZM24.0005 10.7708L27.1748 21.1294H24.4127L24.0039 19.7774L23.3029 22.1248H24.2065V22.1294H28.8865V22.1248H29.7693V24.8114H28.6561V24.8048H19.6999L24.0005 10.7708ZM30.7381 24.8114H33.8455L34.6615 22.1248H30.7381V24.8114Z" fill="var(--logo-accent)"/>
</g>
<defs>
<clipPath id="clip0_856_1804">
<rect width="48" height="48" fill="white"/>
</clipPath>
</defs>
</svg>
