<svg width="255" height="48" viewBox="0 0 255 48" fill="none" xmlns="http://www.w3.org/2000/svg">
    <g clip-path="url(#clip0_628_1675)">
        <path fill-rule="evenodd" clip-rule="evenodd"
              d="M31.248 34.3846H31.2367L28.6074 25.8047H25.826L28.3353 34.1047L28.3373 34.104L29.5812 38.1986L29.5736 38.2007L30.1415 40.0786H32.9816L32.0597 37.0706H32.0639L31.248 34.3846ZM22.0752 26.1946L22.1985 25.8047H19.3552L18.5715 28.0626L14.6267 21.4473L9.74833 30.7106L3.06887 9.20996H0.233398L9.07813 38.0733L14.7025 26.9246L19.4827 34.5586L22.0752 26.1946ZM28.1935 37.0706L27.3805 34.3946L27.4119 34.3853H25.3641L26.1617 37.0706H28.1935ZM36.8601 22.1246H35.7067L34.8906 24.8113H39.2005H39.2007C41.8055 24.8453 43.9164 26.9766 43.9164 29.5973C43.9164 32.2186 41.8055 34.35 39.1929 34.3833V34.384L32.2931 34.3846L33.1091 37.0706H39.2287L39.2297 37.07C43.3129 37.0113 46.603 33.686 46.603 29.5973C46.603 26.3666 44.548 23.612 41.6754 22.57C42.5994 21.4747 43.1564 20.0593 43.1564 18.5146C43.1564 15.1026 40.4361 12.3213 37.0477 12.2213H37.039L30.7338 12.2187V14.9053H36.8601C38.8524 14.9053 40.4698 16.5226 40.4698 18.5146C40.4698 20.5073 38.8524 22.1246 36.8601 22.1246ZM24.0005 10.7706L27.1748 21.1293H24.4127L24.0039 19.7773L23.3029 22.1246H24.2065V22.1293H28.8865V22.1246H29.7693V24.8113H28.6561V24.8047H19.6999L24.0005 10.7706ZM30.7381 24.8113H33.8455L34.6615 22.1246H30.7381V24.8113Z"
              fill="var(--logo-accent)"/>
    </g>
    <path d="M56.34 25L54.9 12.13H57.78L58.842 21.526L62.424 18.772V12.13H65.304V18.79L68.85 21.526L69.93 12.13H72.81L71.37 25H68.958L63.864 20.878L58.752 25H56.34ZM107.705 25L113.501 12.13H117.947L123.743 25H120.611L119.387 22.282H112.061L110.837 25H107.705ZM113.105 19.942H118.343L115.841 14.38H115.607L113.105 19.942ZM198.117 25V12.166L208.953 12.13C210.381 12.13 211.437 12.43 212.121 13.03C212.817 13.618 213.165 14.506 213.165 15.694C213.165 16.882 212.769 17.752 211.977 18.304C212.505 18.592 212.895 18.976 213.147 19.456C213.399 19.924 213.525 20.53 213.525 21.274C213.525 22.486 213.177 23.41 212.481 24.046C211.797 24.67 210.741 24.982 209.313 24.982L198.117 25ZM208.611 14.434H200.997V17.314H208.611C209.703 17.314 210.249 16.822 210.249 15.838C210.249 14.902 209.703 14.434 208.611 14.434ZM208.971 19.618H200.997V22.678H208.971C210.063 22.678 210.609 22.162 210.609 21.13C210.609 20.122 210.063 19.618 208.971 19.618Z"
          fill="var(--logo-accent)"/>
    <path d="M79.4471 25.09C77.8391 25.09 76.5851 24.694 75.6851 23.902C74.7851 23.098 74.3351 21.922 74.3351 20.374C74.3351 18.814 74.7851 17.638 75.6851 16.846C76.5851 16.042 77.8391 15.64 79.4471 15.64H83.9471C85.0031 15.64 85.8071 15.892 86.3591 16.396C86.9231 16.888 87.2051 17.596 87.2051 18.52C87.2051 20.404 86.1191 21.346 83.9471 21.346H77.1431C77.3951 22.462 78.1631 23.02 79.4471 23.02H86.7371V25.09H79.4471ZM79.4471 17.71C78.2111 17.71 77.4491 18.232 77.1611 19.276H83.8211C84.0611 19.276 84.2471 19.204 84.3791 19.06C84.5231 18.916 84.5951 18.718 84.5951 18.466C84.5951 17.962 84.3371 17.71 83.8211 17.71H79.4471ZM88.8279 25V12.13H91.4379V25H88.8279ZM89.2779 25V22.93H95.4879C96.2679 22.93 96.8619 22.72 97.2699 22.3C97.6899 21.868 97.8999 21.226 97.8999 20.374C97.8999 19.51 97.6899 18.868 97.2699 18.448C96.8619 18.016 96.2679 17.8 95.4879 17.8H89.4579V15.73H95.4879C97.0959 15.73 98.3499 16.126 99.2499 16.918C100.15 17.71 100.6 18.862 100.6 20.374C100.6 21.874 100.15 23.02 99.2499 23.812C98.3499 24.604 97.0959 25 95.4879 25H89.2779ZM124.916 25V15.73H132.008C133.052 15.73 133.82 15.994 134.312 16.522C134.804 17.038 135.05 17.722 135.05 18.574V20.5H132.404V18.898C132.404 18.178 132.044 17.818 131.324 17.818H127.562V25H124.916ZM141.306 25C140.262 25 139.494 24.742 139.002 24.226C138.51 23.698 138.264 23.008 138.264 22.156V17.8H135.582V15.73H138.264V12.886H140.874V15.73H144.726V17.8H140.874V21.832C140.874 22.564 141.234 22.93 141.954 22.93H145.23V25H141.306ZM146.572 25V15.73H149.182V25H146.572ZM146.554 14.2V12.166H149.2V14.2H146.554ZM150.854 25.09V23.02H159.674C160.178 23.02 160.43 22.738 160.43 22.174C160.43 21.622 160.178 21.346 159.674 21.346H153.968C152.9 21.346 152.09 21.106 151.538 20.626C150.986 20.134 150.71 19.432 150.71 18.52C150.71 17.596 150.986 16.888 151.538 16.396C152.102 15.892 152.912 15.64 153.968 15.64H162.176V17.71H154.094C153.578 17.71 153.32 17.962 153.32 18.466C153.32 18.718 153.392 18.916 153.536 19.06C153.68 19.204 153.866 19.276 154.094 19.276H160.142C161.078 19.276 161.792 19.522 162.284 20.014C162.788 20.494 163.04 21.196 163.04 22.12C163.04 23.056 162.788 23.788 162.284 24.316C161.78 24.832 161.066 25.09 160.142 25.09H150.854ZM167.038 25C166.066 25 165.322 24.754 164.806 24.262C164.29 23.77 164.032 23.068 164.032 22.156C164.032 21.256 164.29 20.56 164.806 20.068C165.322 19.576 166.066 19.33 167.038 19.33H173.95V18.898C173.95 18.166 173.59 17.8 172.87 17.8H165.238V15.73H173.554C174.646 15.73 175.42 15.982 175.876 16.486C176.332 16.978 176.56 17.674 176.56 18.574V25H167.038ZM167.506 22.93H173.95V21.4H167.506C167.278 21.4 167.098 21.472 166.966 21.616C166.846 21.748 166.786 21.928 166.786 22.156C166.786 22.384 166.846 22.57 166.966 22.714C167.098 22.858 167.278 22.93 167.506 22.93ZM178.547 25V15.73H186.629C187.685 15.73 188.453 15.994 188.933 16.522C189.425 17.038 189.671 17.722 189.671 18.574V25H187.061V18.88C187.061 18.16 186.701 17.8 185.981 17.8H181.157V25H178.547ZM215.232 25V15.73H222.324C223.368 15.73 224.136 15.994 224.628 16.522C225.12 17.038 225.366 17.722 225.366 18.574V20.5H222.72V18.898C222.72 18.178 222.36 17.818 221.64 17.818H217.878V25H215.232ZM231.902 25.09C230.294 25.09 229.04 24.694 228.14 23.902C227.24 23.098 226.79 21.922 226.79 20.374C226.79 18.814 227.24 17.638 228.14 16.846C229.04 16.042 230.294 15.64 231.902 15.64H235.232C236.84 15.64 238.094 16.042 238.994 16.846C239.894 17.638 240.344 18.814 240.344 20.374C240.344 21.922 239.894 23.098 238.994 23.902C238.094 24.694 236.84 25.09 235.232 25.09H231.902ZM231.902 23.02H235.232C236.012 23.02 236.606 22.804 237.014 22.372C237.434 21.94 237.644 21.274 237.644 20.374C237.644 19.462 237.434 18.79 237.014 18.358C236.606 17.926 236.012 17.71 235.232 17.71H231.902C231.122 17.71 230.522 17.926 230.102 18.358C229.694 18.79 229.49 19.462 229.49 20.374C229.49 21.274 229.694 21.94 230.102 22.372C230.522 22.804 231.122 23.02 231.902 23.02ZM241.663 25.09V23.02H250.483C250.987 23.02 251.239 22.738 251.239 22.174C251.239 21.622 250.987 21.346 250.483 21.346H244.777C243.709 21.346 242.899 21.106 242.347 20.626C241.795 20.134 241.519 19.432 241.519 18.52C241.519 17.596 241.795 16.888 242.347 16.396C242.911 15.892 243.721 15.64 244.777 15.64H252.985V17.71H244.903C244.387 17.71 244.129 17.962 244.129 18.466C244.129 18.718 244.201 18.916 244.345 19.06C244.489 19.204 244.675 19.276 244.903 19.276H250.951C251.887 19.276 252.601 19.522 253.093 20.014C253.597 20.494 253.849 21.196 253.849 22.12C253.849 23.056 253.597 23.788 253.093 24.316C252.589 24.832 251.875 25.09 250.951 25.09H241.663Z"
          fill="var(--logo-text)"/>
    <path d="M56 36L254 35" stroke="var(--logo-accent)" stroke-linecap="round"/>
    <defs>
        <clipPath id="clip0_628_1675">
            <rect width="48" height="48" fill="white"/>
        </clipPath>
    </defs>
</svg>
