<svg width="83" height="20" viewBox="0 0 83 20" fill="none" xmlns="http://www.w3.org/2000/svg">
<rect width="19.8842" height="5" transform="matrix(-0.576493 -0.817102 -0.817102 0.576493 82.2285 16.248)" fill="#F6E077"/>
<rect width="19.8842" height="5" transform="matrix(-0.576493 -0.817102 -0.817102 0.576493 76.6797 16.248)" fill="#F6E077"/>
<rect width="19.8842" height="5" transform="matrix(-0.576493 -0.817102 -0.817102 0.576493 71.1309 16.248)" fill="#F6E077"/>
<rect width="19.8842" height="5" transform="matrix(-0.576493 -0.817102 -0.817102 0.576493 65.583 16.248)" fill="#F6E077"/>
<rect width="19.8842" height="5" transform="matrix(-0.576493 -0.817102 -0.817102 0.576493 60.0342 16.248)" fill="#F6E077"/>
<rect width="19.8842" height="5" transform="matrix(-0.576493 -0.817102 -0.817102 0.576493 54.4854 16.248)" fill="#F6E077"/>
<rect width="19.8842" height="5" transform="matrix(-0.576493 -0.817102 -0.817102 0.576493 48.9365 16.248)" fill="#F6E077"/>
<rect width="19.8842" height="5" transform="matrix(-0.576493 -0.817102 -0.817102 0.576493 43.3887 16.248)" fill="#F6E077"/>
<rect width="19.8842" height="5" transform="matrix(-0.576493 -0.817102 -0.817102 0.576493 37.8398 16.248)" fill="#F6E077"/>
<rect width="19.8842" height="5" transform="matrix(-0.576493 -0.817102 -0.817102 0.576493 32.291 16.248)" fill="#F6E077"/>
<rect width="19.8842" height="5" transform="matrix(-0.576493 -0.817102 -0.817102 0.576493 26.7422 16.248)" fill="#F6E077"/>
<rect width="19.8842" height="5" transform="matrix(-0.576493 -0.817102 -0.817102 0.576493 21.1943 16.248)" fill="#F6E077"/>
<rect width="19.8842" height="5" transform="matrix(-0.576493 -0.817102 -0.817102 0.576493 15.6455 16.248)" fill="#F6E077"/>
</svg>
