<svg width="32" height="27" viewBox="0 0 32 27" fill="none" xmlns="http://www.w3.org/2000/svg">
    <path d="M24.8627 24.7443C24.6878 24.7912 24.5164 24.8076 24.3485 24.7935C24.1809 24.7803 24.0139 24.7257 23.8475 24.6296L19.1058 21.892C18.8008 21.7159 18.5985 21.442 18.4989 21.0702C18.3993 20.6984 18.4375 20.36 18.6136 20.055C18.7897 19.75 19.0636 19.5476 19.4354 19.448C19.8072 19.3484 20.1456 19.3867 20.4506 19.5628L24.0277 21.628L28.7825 13.3924C28.9586 13.0874 29.2325 12.8851 29.6043 12.7855C29.9761 12.6858 30.3145 12.7241 30.6195 12.9002C30.9245 13.0763 31.1268 13.3502 31.2265 13.722C31.3261 14.0938 31.2878 14.4322 31.1117 14.7372L25.6845 24.1374C25.5885 24.3038 25.4712 24.4346 25.3326 24.5298C25.1943 24.626 25.0377 24.6975 24.8627 24.7443ZM3.7064 8.50902L15.9616 12.2571L24.7009 2.88356L3.7064 8.50902ZM8.62868 26.8792C7.90699 27.0726 7.22061 26.9813 6.56953 26.6054C5.91734 26.2289 5.49456 25.6798 5.30118 24.9581L1.08209 9.2122C0.888714 8.49052 0.980414 7.80402 1.35719 7.1527C1.73286 6.50075 2.28153 6.07808 3.00322 5.88471L23.9977 0.259246C24.7194 0.0658712 25.4064 0.157454 26.0585 0.533996C26.7096 0.909897 27.1318 1.45869 27.3252 2.18038L28.8546 7.88826L27.8941 9.55201L26.9335 11.2158L25.4041 5.50787L17.2394 14.2704C17.1476 14.3653 17.0457 14.4451 16.9337 14.5098C16.8228 14.5751 16.7126 14.6225 16.6033 14.6518C16.4939 14.6811 16.3749 14.6951 16.2461 14.694C16.1167 14.694 15.9886 14.6758 15.8616 14.6395L4.40959 11.1333L7.9255 24.2549L14.6831 22.4442L18.0106 24.3653L8.62868 26.8792Z"
          fill="currentColor"/>
</svg>
