<svg width="36" height="36" viewBox="0 0 36 36" fill="none" xmlns="http://www.w3.org/2000/svg">
<path d="M17.6541 29.4697C17.8688 29.4122 18.0297 29.3616 18.1333 29.319C18.2525 29.2605 18.3484 29.1645 18.4054 29.0467C18.4833 28.9084 18.4946 28.7358 18.4387 28.5272L18.1721 27.5607C18.0013 26.9449 17.8682 26.4551 17.7717 26.0952L17.4508 26.2427C17.1928 26.356 16.9247 26.4453 16.65 26.5095C16.3064 26.5952 15.9566 26.6535 15.604 26.6835C15.2296 26.7145 14.8542 26.6579 14.5092 26.5185C14.149 26.3778 13.8427 26.133 13.631 25.8165L13.3963 25.5272C13.2036 25.3015 12.9834 25.0996 12.7405 24.9259C12.5149 24.7415 12.2458 24.614 11.9567 24.5545L11.8361 24.5123C11.7524 24.4808 11.6731 24.4395 11.5999 24.3892C11.5299 24.3445 11.4674 24.2896 11.4144 24.2265C11.3681 24.1681 11.3764 24.1063 11.4422 24.0439C11.563 23.955 11.7028 23.894 11.8506 23.8655L12.1556 23.8304C12.3621 23.8142 12.6344 23.8642 12.9731 23.9766C13.3105 24.0911 13.6141 24.2725 13.8816 24.5269C14.2114 24.856 14.5611 25.0809 14.934 25.199C15.2666 25.3164 15.6291 25.3335 15.9747 25.2481C16.2966 25.1619 16.5696 25.0645 16.7913 24.9548C17.0071 24.8477 17.2093 24.716 17.3936 24.5624C17.3112 23.9043 17.4177 23.3503 17.7163 22.905C17.1971 22.992 16.6723 23.0404 16.1467 23.0498C15.631 23.0498 15.1183 22.9869 14.6204 22.8625C14.1024 22.7448 13.6145 22.5285 13.1846 22.2261C12.7714 21.9287 12.3824 21.5 12.0149 20.937C11.6183 20.3001 11.3246 19.6065 11.1436 18.8803C10.8362 17.7328 10.9602 16.6504 11.515 15.6372C10.9221 14.8699 10.6966 13.8924 10.8385 12.7047C11.0996 12.5415 11.5371 12.4932 12.1507 12.558C12.7643 12.6228 13.2228 12.6956 13.5213 12.7796C13.8212 12.8614 14.0609 12.9332 14.2463 12.9953C15.0961 12.5026 16.0095 12.1249 16.961 11.8729C17.9269 11.6141 18.8985 11.4842 19.8738 11.4893L20.3365 10.9982C20.6587 10.6697 21.0512 10.339 21.5174 10.011C21.9848 9.68075 22.3661 9.52268 22.6631 9.53628C23.3905 10.4911 23.6894 11.4489 23.5573 12.4086C24.5466 13.01 25.1948 13.8835 25.5027 15.0328C25.7189 15.8395 25.8102 16.5809 25.7766 17.2569C25.7431 17.933 25.617 18.4998 25.401 18.9601C25.1735 19.4346 24.8567 19.8641 24.4672 20.2259C24.0983 20.5826 23.6857 20.8935 23.2391 21.1513C22.7784 21.4056 22.299 21.6257 21.8051 21.8094C22.4272 22.0993 22.862 22.7058 23.1089 23.6272L24.0205 27.0297C24.0639 27.1914 24.1238 27.315 24.1991 27.4029C24.2347 27.4449 24.2788 27.4793 24.3285 27.504C24.3783 27.5288 24.4329 27.5434 24.4889 27.547C24.606 27.5548 24.7091 27.5533 24.7937 27.5399C24.8806 27.5278 25 27.5014 25.1556 27.4597L17.6541 29.4697Z" fill="currentColor"/>
<path d="M6.97721 9.33666C6.26246 9.52817 5.65308 9.99577 5.2831 10.6366C4.91312 11.2774 4.81286 12.039 5.00438 12.7537L9.33701 28.9233C9.52852 29.638 9.99612 30.2474 10.6369 30.6174C11.2778 30.9874 12.0393 31.0876 12.754 30.8961L28.9236 26.5635C29.6384 26.372 30.2478 25.9044 30.6177 25.2636C30.9877 24.6227 31.088 23.8612 30.8965 23.1465L26.5638 6.97686C26.3723 6.26212 25.9047 5.65273 25.2639 5.28275C24.6231 4.91277 23.8615 4.81252 23.1468 5.00403L6.97721 9.33666ZM6.2551 6.64173L22.4247 2.3091C23.8542 1.92607 25.3773 2.12659 26.6589 2.86654C27.9405 3.6065 28.8757 4.82527 29.2588 6.25475L33.5914 22.4244C33.9744 23.8538 33.7739 25.3769 33.034 26.6586C32.294 27.9402 31.0752 28.8754 29.6457 29.2584L13.4762 33.5911C12.0467 33.9741 10.5236 33.7736 9.24194 33.0336C7.9603 32.2937 7.0251 31.0749 6.64208 29.6454L2.30944 13.4758C1.92642 12.0463 2.12694 10.5232 2.86689 9.24159C3.60684 7.95996 4.82562 7.02476 6.2551 6.64173Z" fill="black"/>
</svg>
