<svg width="29" height="29" viewBox="0 0 29 29" fill="none" xmlns="http://www.w3.org/2000/svg">
    <path fill-rule="evenodd" clip-rule="evenodd"
          d="M11.5502 2.2139C4.73647 4.03963 0.690763 11.0058 2.50172 17.7644C3.83144 22.727 7.9499 26.2006 12.7453 26.9745C13.2471 27.0559 13.6634 26.8587 13.9368 26.5105C14.0865 26.3124 14.1883 26.0824 14.2343 25.8385C14.2802 25.5945 14.2691 25.3433 14.2017 25.1043L14.0298 24.4629L12.4473 24.665C12.4356 24.6665 12.4238 24.6677 12.412 24.6685C11.5263 24.7297 10.8787 24.586 10.348 24.2711C9.90188 24.0059 9.57289 23.6333 9.29402 23.3173L9.19693 23.207C8.93589 22.9026 8.66149 22.6099 8.37452 22.3298C8.15808 22.1297 8.00675 22.0376 7.86892 21.9913C7.51907 21.874 7.14369 21.6163 7.03182 21.1988C6.99861 21.0789 6.99248 20.9532 7.01388 20.8306C7.03528 20.7081 7.08367 20.5918 7.15555 20.4903C7.29302 20.3054 7.49105 20.1746 7.71509 20.1208C7.96491 20.0539 8.2206 20.0674 8.43992 20.1027C8.66435 20.1391 8.89549 20.205 9.11433 20.279C9.64751 20.4594 10.1887 20.6967 10.6836 21.0357C11.1987 21.3873 11.5545 21.6032 11.9891 21.5506C12.3467 21.5079 12.6981 21.4149 12.9682 21.3293C12.9482 21.1026 12.9542 20.8744 12.9862 20.6491C12.6313 20.6606 12.2761 20.6527 11.9221 20.6254C11.1162 20.5616 10.187 20.3751 9.47064 19.9073C8.68371 19.3921 8.14707 18.8882 7.74841 18.2376C7.36019 17.6035 7.12652 16.8665 6.88048 15.9482C6.50357 14.5416 6.79486 13.1935 7.08318 12.4421C6.76008 11.9384 6.48246 11.4069 6.25362 10.854C6.10691 10.506 6.00907 10.1393 5.96287 9.76442C5.93078 9.41963 5.9629 8.97683 6.26769 8.63344C6.56079 8.30041 6.98212 8.19837 7.32474 8.1717C7.68064 8.14508 8.07055 8.19137 8.43776 8.26545C9.03548 8.3851 9.65334 8.59344 10.1254 8.78416C10.7494 8.40346 11.8791 7.82577 12.9565 7.51177L12.9812 7.50514C14.0724 7.2381 15.2855 7.18802 15.9992 7.20908C16.314 6.80872 16.7435 6.31854 17.2005 5.91748C17.4815 5.66972 17.7949 5.43498 18.1175 5.27978C18.4276 5.13157 18.8435 5.00928 19.2646 5.14971C19.6995 5.29612 19.9498 5.66324 20.0933 5.97818C20.2427 6.30602 20.332 6.69337 20.3852 7.06747C20.4638 7.66062 20.4895 8.25957 20.4619 8.85726C21.0876 9.36501 22.0139 10.3868 22.3905 11.7923C22.6366 12.7106 22.8027 13.4657 22.7844 14.2075C22.7639 14.9729 22.5508 15.6764 22.1269 16.5161C21.7405 17.2794 21.029 17.9054 20.363 18.3637C20.0091 18.6057 19.6398 18.8243 19.2575 19.0181C19.508 19.3997 19.6483 19.7251 19.7005 19.9198L20.6322 23.397C20.7739 23.9259 21.1413 24.3111 21.5618 24.4806C21.9707 24.6473 22.4287 24.6102 22.8241 24.2944C26.6351 21.2325 28.4968 16.1444 27.1602 11.156C25.3495 4.39851 18.365 0.387871 11.5502 2.2139ZM13.8856 22.2908C13.6042 22.4108 13.8845 22.2911 13.8845 22.2911L13.8811 22.292L13.8727 22.2967L13.8412 22.3099C13.6794 22.3743 13.5153 22.4332 13.3494 22.4863C12.9545 22.6145 12.5486 22.7059 12.1369 22.7594C11.213 22.8718 10.5028 22.3867 10.0431 22.0709L9.99911 22.0416C9.84912 21.9396 9.69266 21.8473 9.53073 21.7655C9.70392 21.9483 9.88825 22.1546 10.0864 22.3765L10.1037 22.3959L10.1924 22.4976C10.4943 22.8364 10.6937 23.0628 10.9671 23.2236C11.2337 23.3813 11.6155 23.5009 12.3099 23.4547L14.402 23.1872C14.5481 23.1685 14.696 23.2035 14.8183 23.2857C14.9406 23.3678 15.0289 23.4915 15.0668 23.6339L15.3765 24.7896C15.6177 25.6898 15.4107 26.6052 14.8939 27.2647C14.6237 27.6153 14.263 27.8855 13.8506 28.0462C13.4381 28.2069 12.9897 28.2519 12.5535 28.1765C7.30707 27.3305 2.78801 23.5276 1.32803 18.0789C-0.659621 10.6609 3.7822 3.03495 11.2351 1.03796C18.688 -0.959035 26.3477 3.42429 28.3353 10.8423C29.8028 16.3191 27.7523 21.8956 23.5864 25.2443C23.2452 25.5244 22.8343 25.7065 22.3975 25.771C21.9608 25.8355 21.5148 25.7801 21.1072 25.6107C20.704 25.443 20.3453 25.1841 20.059 24.8545C19.7727 24.5248 19.5666 24.1333 19.4571 23.7106L18.5254 20.2334C18.5042 20.1547 18.3273 19.7148 17.8564 19.1861C17.7913 19.1127 17.7448 19.0248 17.7209 18.9296C17.697 18.8345 17.6964 18.735 17.7191 18.6396C17.7418 18.5442 17.7872 18.4556 17.8513 18.3814C17.9155 18.3073 17.9967 18.2497 18.0878 18.2135C18.6454 17.9866 19.1768 17.7002 19.6729 17.3594C20.2781 16.944 20.791 16.4592 21.041 15.9652C21.4124 15.2313 21.555 14.7058 21.5684 14.1752C21.5826 13.625 21.462 13.0217 21.2168 12.1068C20.8728 10.8229 19.9085 9.92461 19.5047 9.66011C19.4132 9.60041 19.3393 9.51719 19.291 9.41916C19.2427 9.32113 19.2216 9.21191 19.23 9.10293C19.2781 8.48237 19.2625 7.85852 19.1834 7.24114C19.1365 6.92203 19.0694 6.66261 18.9878 6.48425C18.9625 6.41784 18.9241 6.35719 18.8749 6.30586C18.7938 6.31321 18.7153 6.33795 18.6447 6.3784C18.463 6.46567 18.243 6.62112 18.0029 6.83259C17.5245 7.25266 17.0585 7.80929 16.7801 8.19265C16.7188 8.27729 16.6365 8.3446 16.5414 8.38804C16.4463 8.43149 16.3416 8.44958 16.2375 8.44057C15.2465 8.38667 14.2528 8.46909 13.2842 8.68552C12.1583 9.01617 10.9369 9.68837 10.5333 9.969C10.4476 10.0289 10.3479 10.0656 10.2438 10.0755C10.1397 10.0854 10.0349 10.0682 9.9394 10.0256C9.38033 9.77861 8.79769 9.58882 8.2004 9.45916C7.9433 9.4012 7.67975 9.37694 7.4164 9.38701C7.3354 9.38736 7.25543 9.40509 7.18187 9.43899C7.16492 9.50803 7.16199 9.57977 7.17327 9.64995C7.19181 9.8452 7.26341 10.1034 7.38234 10.4032C7.62305 10.9772 7.92144 11.5252 8.2729 12.0389C8.39807 12.2224 8.41449 12.4593 8.31356 12.6588C8.09615 13.0897 7.71013 14.3498 8.05417 15.6338C8.29901 16.5475 8.49647 17.1314 8.78386 17.6008C9.06191 18.0533 9.44675 18.4363 10.1345 18.8876C10.5991 19.1901 11.2846 19.3537 12.0175 19.4106C12.6172 19.4577 13.2202 19.4401 13.8162 19.3581C13.9382 19.339 14.0631 19.3576 14.1744 19.4113C14.2856 19.4649 14.3778 19.5512 14.4388 19.6586C14.4998 19.766 14.5266 19.8894 14.5158 20.0124C14.5049 20.1355 14.4568 20.2523 14.3779 20.3473C14.2278 20.5298 14.1691 20.8013 14.1743 21.0954C14.1769 21.2468 14.1947 21.3976 14.2274 21.5455L14.2331 21.5669C14.2728 21.7092 14.2594 21.861 14.1955 21.9942C14.1316 22.1274 14.0214 22.2328 13.8856 22.2908Z"
          fill="currentColor"/>
</svg>
