<svg width="35" height="35" viewBox="0 0 35 35" fill="none" xmlns="http://www.w3.org/2000/svg">
    <path d="M24.6456 17.4826L25.9826 22.4723L23.0903 23.2473L21.8426 18.591C21.5295 17.4222 20.8973 16.7366 19.85 17.0173C19.051 17.2314 18.7185 17.8962 18.6489 18.4732C18.6232 18.6797 18.6724 18.9443 18.7419 19.2034L20.0441 24.0635L17.1505 24.8388C17.1505 24.8388 15.0769 16.9437 14.819 16.1376L17.7126 15.3623L18.0428 16.5945L18.0315 16.6279L18.0504 16.6229L18.0428 16.5945C18.2683 15.8976 18.7279 14.8704 20.2652 14.4585C22.1682 13.9486 23.9296 14.8103 24.6456 17.4826ZM10.6674 12.7527C9.67811 13.0178 9.20458 13.8419 9.43314 14.6949C9.65735 15.5317 10.4653 16.0313 11.4357 15.7712L11.4546 15.7662C12.4641 15.4957 12.9123 14.6581 12.6885 13.8226C12.441 12.9747 11.658 12.4873 10.6674 12.7527ZM12.6575 26.0427L15.5511 25.2674L13.2197 16.5662L10.326 17.3415L12.6575 26.0427Z"
          fill="currentColor"/>
    <path d="M6.49785 9.13751C5.78195 9.32934 5.17158 9.7977 4.801 10.4396C4.43042 11.0814 4.33 11.8442 4.52183 12.5601L8.86148 28.7559C9.0533 29.4718 9.52166 30.0822 10.1635 30.4527C10.8054 30.8233 11.5682 30.9237 12.2841 30.7319L28.4798 26.3923C29.1957 26.2004 29.8061 25.7321 30.1767 25.0902C30.5473 24.4484 30.6477 23.6856 30.4559 22.9697L26.1162 6.77389C25.9244 6.05799 25.456 5.44761 24.8142 5.07704C24.1723 4.70646 23.4095 4.60604 22.6936 4.79786L6.49785 9.13751ZM5.77458 6.43822L21.9704 2.09856C23.4022 1.71492 24.9277 1.91576 26.2114 2.65691C27.4952 3.39807 28.4319 4.61882 28.8155 6.05061L33.1552 22.2464C33.5388 23.6782 33.338 25.2038 32.5968 26.4875C31.8557 27.7712 30.6349 28.7079 29.2031 29.0916L13.0073 33.4312C11.5755 33.8149 10.05 33.614 8.76626 32.8729C7.48254 32.1317 6.54583 30.911 6.16218 29.4792L1.82253 13.2834C1.43888 11.8516 1.63972 10.326 2.38087 9.04229C3.12203 7.75858 4.34278 6.82186 5.77458 6.43822V6.43822Z"
          fill="currentColor"/>
</svg>
