<svg width="31" height="31" viewBox="0 0 31 31" fill="none" xmlns="http://www.w3.org/2000/svg">
    <path d="M13.8259 8.90629C12.5444 9.24967 11.3935 9.96535 10.5188 10.9628C9.64399 11.9603 9.08466 13.1948 8.91149 14.5102C8.73832 15.8255 8.95909 17.1627 9.54588 18.3526C10.1327 19.5425 11.0591 20.5317 12.2081 21.195C13.3571 21.8584 14.6769 22.1661 16.0008 22.0794C17.3247 21.9926 18.5931 21.5152 19.6457 20.7075C20.6982 19.8999 21.4876 18.7982 21.9141 17.5419C22.3406 16.2856 22.3849 14.9311 22.0415 13.6496C21.5811 11.9311 20.4568 10.466 18.9161 9.57643C17.3754 8.68689 15.5444 8.44584 13.8259 8.90629ZM16.7195 19.7053C15.8652 19.9343 14.9622 19.9047 14.1246 19.6204C13.2871 19.3361 12.5527 18.8098 12.0142 18.1081C11.4758 17.4064 11.1575 16.5608 11.0997 15.6782C11.0418 14.7956 11.247 13.9157 11.6892 13.1497C12.1315 12.3837 12.7909 11.7661 13.5842 11.3749C14.3774 10.9837 15.2689 10.8365 16.1458 10.952C17.0227 11.0674 17.8457 11.4403 18.5107 12.0235C19.1757 12.6067 19.6528 13.3739 19.8817 14.2283C20.1848 15.3738 20.0224 16.5927 19.43 17.6188C18.8375 18.645 17.8631 19.3951 16.7195 19.7053ZM17.8846 0.295432L6.00562 3.47839C4.00076 4.01559 2.29142 5.32722 1.25363 7.12472C0.215835 8.92223 -0.0653938 11.0584 0.471807 13.0632L3.65476 24.9422C4.19196 26.9471 5.50359 28.6564 7.3011 29.6942C9.09861 30.732 11.2348 31.0132 13.2396 30.476L25.1186 27.2931C27.1234 26.7559 28.8328 25.4442 29.8706 23.6467C30.9084 21.8492 31.1896 19.7131 30.6524 17.7082L27.4694 5.82925C26.9322 3.82439 25.6206 2.11504 23.8231 1.07725C22.0256 0.0394601 19.8894 -0.241769 17.8846 0.295432ZM28.4926 18.2869C28.6826 18.996 28.7311 19.7356 28.6352 20.4634C28.5394 21.1912 28.3012 21.893 27.9341 22.5287C27.5671 23.1645 27.0784 23.7217 26.496 24.1686C25.9136 24.6155 25.2489 24.9433 24.5399 25.1332L12.6609 28.3162C11.9518 28.5062 11.2123 28.5547 10.4845 28.4589C9.75665 28.363 9.05484 28.1248 8.4191 27.7578C7.78336 27.3907 7.22614 26.902 6.77925 26.3197C6.33237 25.7373 6.00457 25.0726 5.81457 24.3635L2.63162 12.4845C2.2479 11.0525 2.44878 9.52666 3.19006 8.24272C3.93134 6.95879 5.1523 6.02191 6.58434 5.6382L18.4633 2.45524C19.1724 2.26525 19.9119 2.21677 20.6397 2.31259C21.3675 2.40841 22.0694 2.64664 22.7051 3.01369C23.3408 3.38073 23.8981 3.8694 24.3449 4.45179C24.7918 5.03418 25.1196 5.69889 25.3096 6.40797L28.4926 18.2869ZM22.3205 6.05146C22.4063 6.37184 22.3953 6.71048 22.2886 7.02456C22.182 7.33863 21.9847 7.61404 21.7215 7.81596C21.4584 8.01787 21.1413 8.13722 20.8103 8.15891C20.4794 8.1806 20.1494 8.10367 19.8621 7.93783C19.5749 7.77199 19.3433 7.5247 19.1966 7.22722C19.0499 6.92975 18.9947 6.59545 19.038 6.26661C19.0813 5.93777 19.2211 5.62915 19.4398 5.37978C19.6585 5.13041 19.9462 4.95149 20.2666 4.86564C20.6962 4.75053 21.154 4.81079 21.5391 5.03318C21.9243 5.25556 22.2054 5.62185 22.3205 6.05146Z"
          fill="currentColor"/>
</svg>
