<svg width="31" height="31" viewBox="0 0 31 31" fill="none" xmlns="http://www.w3.org/2000/svg">
<path d="M26.0986 6.74655L28.9913 17.5424C29.4708 19.3319 29.2198 21.2386 28.2935 22.8431C27.3671 24.4475 25.8414 25.6182 24.0519 26.0977L13.256 28.9905C11.4665 29.47 9.55982 29.2189 7.95538 28.2926C6.35094 27.3663 5.18019 25.8406 4.70069 24.051L1.80796 13.2552C1.32846 11.4657 1.57948 9.55898 2.5058 7.95454C3.43213 6.3501 4.95787 5.17935 6.74739 4.69985L17.5432 1.80712C19.3327 1.32762 21.2395 1.57864 22.8439 2.50497C24.4483 3.43129 25.6191 4.95703 26.0986 6.74655Z" stroke="currentColor" stroke-width="2.4" stroke-linecap="round" stroke-linejoin="round"/>
<path d="M17.3049 27.906L14.0506 15.7607C13.2594 12.808 13.279 10.182 18.0021 8.91639M11.7132 17.8333L19.8101 15.6638" stroke="currentColor" stroke-width="2.4" stroke-linecap="round" stroke-linejoin="round" />
</svg>
