<svg width="31" height="31" viewBox="0 0 31 31" fill="none" xmlns="http://www.w3.org/2000/svg">
<path d="M28.4661 12.0493C26.5315 4.82911 19.1462 0.535021 11.9715 2.45747C4.79403 4.38241 0.544806 11.7922 2.47987 19.014C4.22783 25.5374 10.4286 29.672 16.9014 28.9889L14.4538 19.8541L11.1571 20.7375L10.145 16.9601L13.4449 16.0759L12.6725 13.1934C11.7948 9.91785 13.2507 7.58876 16.2177 6.79376C17.6403 6.41258 19.1945 6.26939 19.1945 6.26939L20.0561 9.48484L18.4175 9.92389C16.8049 10.356 16.5717 11.4994 16.8489 12.5338L17.506 14.986L21.1079 14.0209L21.5452 17.9522L18.5165 18.7638L20.9641 27.8986C26.9113 25.2537 30.214 18.5727 28.4661 12.0493Z" stroke="black" stroke-width="2.4" stroke-linejoin="round" fill="currentColor"/>
</svg>
