<svg width="94" height="94" viewBox="0 0 94 94" fill="none" xmlns="http://www.w3.org/2000/svg">
<g clip-path="url(#clip0_505_8322)">
<rect width="75.6434" height="75.6434" transform="translate(73.5355 93.582) rotate(-165)" fill="#FAF8E6"/>
<path d="M62.2322 38.3458L56.4404 59.9612L51.7602 51.8548L36.0966 60.3835L29.9379 49.2706L45.6015 40.7419L40.9213 32.6356L62.2322 38.3458ZM25.102 18.6078L13.6815 61.2296C12.7842 64.5785 14.79 68.0527 18.1389 68.95L60.7607 80.3705C64.1095 81.2678 67.5837 79.262 68.481 75.9131L79.9015 33.2913C80.7988 29.9425 78.793 26.4683 75.4442 25.571L32.8224 14.1505C29.4735 13.2532 25.9993 15.259 25.102 18.6078ZM31.1909 20.2393L73.8127 31.6598L62.3922 74.2816L19.7704 62.8611L31.1909 20.2393Z" fill="#032D2D"/>
</g>
<defs>
<clipPath id="clip0_505_8322">
<rect width="75.6434" height="75.6434" fill="white" transform="translate(73.5355 93.582) rotate(-165)"/>
</clipPath>
</defs>
</svg>
