<svg width="94" height="94" viewBox="0 0 94 94" fill="none" xmlns="http://www.w3.org/2000/svg">
<g clip-path="url(#clip0_483_1694)">
<rect width="75.6434" height="75.6434" transform="translate(73.5273 93.582) rotate(-165)" fill="#F6E077"/>
<path d="M62.2245 38.3458L56.4326 59.9612L51.7524 51.8548L36.0889 60.3835L29.9302 49.2706L45.5937 40.7419L40.9135 32.6356L62.2245 38.3458ZM25.0943 18.6078L13.6738 61.2296C12.7765 64.5785 14.7823 68.0527 18.1312 68.95L60.753 80.3705C64.1018 81.2678 67.576 79.262 68.4733 75.9131L79.8938 33.2913C80.7911 29.9425 78.7853 26.4683 75.4364 25.571L32.8146 14.1505C29.4658 13.2532 25.9916 15.259 25.0943 18.6078ZM31.1831 20.2393L73.8049 31.6598L62.3845 74.2816L19.7627 62.8611L31.1831 20.2393Z" fill="#032D2D"/>
</g>
<defs>
<clipPath id="clip0_483_1694">
<rect width="75.6434" height="75.6434" fill="white" transform="translate(73.5273 93.582) rotate(-165)"/>
</clipPath>
</defs>
</svg>
