<svg width="37" height="37" viewBox="0 0 37 37" fill="none" xmlns="http://www.w3.org/2000/svg">
<path d="M27.6291 24.4807C25.6908 25.0001 23.6857 25.0742 21.6138 24.703C19.5419 24.3319 17.6057 23.6267 15.8051 22.5877C14.0045 21.5486 12.4257 20.2243 11.0688 18.6148C9.71182 17.0053 8.77345 15.2318 8.25364 13.2943C8.18117 13.0238 8.21094 12.7743 8.34293 12.5456C8.47492 12.317 8.67615 12.1665 8.94661 12.094L12.5978 11.1157C12.8082 11.0593 13.0141 11.0766 13.2156 11.1675C13.4171 11.2585 13.5611 11.4051 13.6475 11.6074L15.079 14.6058C15.1654 14.8081 15.2129 15.0008 15.2214 15.1841C15.2299 15.3673 15.1849 15.5443 15.0863 15.715L13.5145 18.5035C14.4354 19.4162 15.496 20.2191 16.6963 20.9121C17.8965 21.605 19.1602 22.1441 20.4874 22.5293L22.0383 19.843C22.1373 19.6715 22.2868 19.5229 22.487 19.3972C22.6871 19.2714 22.896 19.1951 23.1136 19.1684L26.393 18.966C26.6155 18.9548 26.8155 19.01 26.9931 19.1319C27.1706 19.2537 27.2875 19.4195 27.3437 19.6292L28.3221 23.2804C28.3945 23.5509 28.3648 23.8004 28.2328 24.0291C28.1008 24.2577 27.8996 24.4082 27.6291 24.4807Z" fill="currentColor"/>
<path d="M6.57201 9.10854C5.80347 9.31446 5.14822 9.81726 4.75039 10.5063C4.35257 11.1954 4.24476 12.0142 4.45069 12.7828L9.10943 30.1694C9.31536 30.938 9.81816 31.5932 10.5072 31.9911C11.1963 32.3889 12.0151 32.4967 12.7837 32.2908L30.1703 27.632C30.9389 27.4261 31.5941 26.9233 31.992 26.2342C32.3898 25.5452 32.4976 24.7263 32.2917 23.9578L27.6329 6.57111C27.427 5.80257 26.9242 5.14732 26.2351 4.74949C25.5461 4.35167 24.7272 4.24386 23.9587 4.44979L6.57201 9.10854ZM5.79555 6.21076L23.1822 1.55201C24.7193 1.14016 26.357 1.35577 27.7351 2.15142C29.1132 2.94707 30.1188 4.25758 30.5307 5.79466L35.1894 23.1813C35.6013 24.7184 35.3857 26.3561 34.59 27.7342C33.7944 29.1123 32.4839 30.1179 30.9468 30.5298L13.5601 35.1885C12.023 35.6004 10.3853 35.3848 9.00721 34.5891C7.62911 33.7935 6.62352 32.483 6.21166 30.9459L1.55291 13.5592C1.14106 12.0221 1.35667 10.3844 2.15232 9.00631C2.94797 7.62821 4.25848 6.62262 5.79555 6.21076V6.21076Z" fill="currentColor"/>
</svg>
