<svg width="23" height="17" viewBox="0 0 23 17" fill="none" xmlns="http://www.w3.org/2000/svg">
<path d="M18.541 10.3398C18.2577 10.3398 18.02 10.2438 17.828 10.0518C17.636 9.85984 17.5403 9.62251 17.541 9.33984V7.33984L15.541 7.33984C15.2577 7.33984 15.02 7.24384 14.828 7.05184C14.636 6.85984 14.5403 6.62251 14.541 6.33984C14.541 6.05651 14.637 5.81884 14.829 5.62684C15.021 5.43484 15.2583 5.33918 15.541 5.33984L17.541 5.33984V3.33984C17.541 3.05651 17.637 2.81884 17.829 2.62684C18.021 2.43484 18.2583 2.33918 18.541 2.33984C18.8243 2.33984 19.062 2.43584 19.254 2.62784C19.446 2.81984 19.5417 3.05718 19.541 3.33984V5.33984H21.541C21.8243 5.33984 22.062 5.43584 22.254 5.62784C22.446 5.81984 22.5417 6.05718 22.541 6.33984C22.541 6.62318 22.445 6.86084 22.253 7.05284C22.061 7.24484 21.8237 7.34051 21.541 7.33984H19.541V9.33984C19.541 9.62317 19.445 9.86084 19.253 10.0528C19.061 10.2448 18.8237 10.3405 18.541 10.3398ZM8.54102 8.33984C7.44102 8.33984 6.49935 7.94817 5.71602 7.16484C4.93268 6.38151 4.54102 5.43984 4.54102 4.33984C4.54102 3.23984 4.93268 2.29818 5.71602 1.51484C6.49935 0.73151 7.44102 0.339844 8.54102 0.339844C9.64102 0.339844 10.5827 0.73151 11.366 1.51484C12.1493 2.29818 12.541 3.23984 12.541 4.33984C12.541 5.43984 12.1493 6.38151 11.366 7.16484C10.5827 7.94817 9.64102 8.33984 8.54102 8.33984ZM1.54102 16.3398C1.25769 16.3398 1.02002 16.2438 0.828019 16.0518C0.636019 15.8598 0.540352 15.6225 0.541019 15.3398L0.541019 13.5398C0.541019 12.9732 0.687019 12.4522 0.979019 11.9768C1.27102 11.5015 1.65835 11.1392 2.14102 10.8898C3.17435 10.3732 4.22435 9.98551 5.29102 9.72684C6.35768 9.46817 7.44102 9.33917 8.54102 9.33984C9.64102 9.33984 10.7243 9.46917 11.791 9.72784C12.8577 9.98651 13.9077 10.3738 14.941 10.8898C15.4243 11.1398 15.812 11.5025 16.104 11.9778C16.396 12.4532 16.5417 12.9738 16.541 13.5398V15.3398C16.541 15.6232 16.445 15.8608 16.253 16.0528C16.061 16.2448 15.8237 16.3405 15.541 16.3398H1.54102ZM2.54102 14.3398H14.541V13.5398C14.541 13.3565 14.495 13.1898 14.403 13.0398C14.311 12.8898 14.1903 12.7732 14.041 12.6898C13.141 12.2398 12.2327 11.9025 11.316 11.6778C10.3993 11.4532 9.47435 11.3405 8.54102 11.3398C7.60768 11.3398 6.68268 11.4525 5.76602 11.6778C4.84935 11.9032 3.94102 12.2405 3.04102 12.6898C2.89102 12.7732 2.77002 12.8898 2.67802 13.0398C2.58602 13.1898 2.54035 13.3565 2.54102 13.5398V14.3398ZM8.54102 6.33984C9.09102 6.33984 9.56202 6.14384 9.95402 5.75184C10.346 5.35984 10.5417 4.88918 10.541 4.33984C10.541 3.78984 10.345 3.31884 9.95302 2.92684C9.56102 2.53484 9.09035 2.33918 8.54102 2.33984C7.99102 2.33984 7.52002 2.53584 7.12802 2.92784C6.73602 3.31984 6.54035 3.79051 6.54102 4.33984C6.54102 4.88984 6.73702 5.36084 7.12902 5.75284C7.52102 6.14484 7.99168 6.34051 8.54102 6.33984Z" fill="currentColor"/>
</svg>
