<svg width="38" height="38" viewBox="0 0 38 38" fill="none" xmlns="http://www.w3.org/2000/svg">
<path d="M21.269 31.3326L17.7749 18.2926C16.9255 15.1224 16.9465 12.3029 22.0176 10.9441M15.2654 20.5179L23.9587 18.1885" stroke="currentColor" stroke-width="3" stroke-linecap="round" stroke-linejoin="round"/>
<path d="M7.20092 9.73744C6.43238 9.94337 5.77712 10.4462 5.3793 11.1352C4.98147 11.8243 4.87367 12.6431 5.0796 13.4117L9.73834 30.7983C9.94427 31.5669 10.4471 32.2221 11.1361 32.62C11.8252 33.0178 12.644 33.1256 13.4126 32.9197L30.7992 28.2609C31.5678 28.055 32.223 27.5522 32.6209 26.8631C33.0187 26.1741 33.1265 25.3552 32.9206 24.5867L28.2618 7.20002C28.0559 6.43148 27.5531 5.77622 26.864 5.3784C26.175 4.98058 25.3561 4.87277 24.5876 5.0787L7.20092 9.73744ZM6.42446 6.83966L23.8111 2.18092C25.3482 1.76906 26.9859 1.98467 28.364 2.78032C29.7421 3.57597 30.7477 4.88648 31.1596 6.42356L35.8183 23.8102C36.2302 25.3473 36.0146 26.985 35.2189 28.3631C34.4233 29.7412 33.1128 30.7468 31.5757 31.1587L14.189 35.8174C12.652 36.2293 11.0142 36.0137 9.63612 35.218C8.25801 34.4224 7.25242 33.1119 6.84056 31.5748L2.18182 14.1881C1.76996 12.6511 1.98557 11.0133 2.78122 9.63522C3.57687 8.25711 4.88738 7.25152 6.42446 6.83966V6.83966Z" fill="currentColor"/>
</svg>
