<svg width="38" height="38" viewBox="0 0 38 38" fill="none" xmlns="http://www.w3.org/2000/svg">
<path d="M18.3677 31.9587C18.5985 31.8968 18.7715 31.8425 18.8829 31.7966C19.0111 31.7337 19.1142 31.6304 19.1754 31.5038C19.2593 31.3551 19.2714 31.1695 19.2113 30.9452L18.9246 29.906C18.741 29.2438 18.5978 28.7172 18.4941 28.3302L18.1491 28.4888C17.8716 28.6106 17.5833 28.7066 17.288 28.7756C16.9185 28.8678 16.5423 28.9304 16.1632 28.9628C15.7606 28.9961 15.357 28.9352 14.986 28.7853C14.5987 28.6341 14.2694 28.3708 14.0417 28.0305L13.7893 27.7194C13.5821 27.4767 13.3454 27.2596 13.0842 27.0728C12.8416 26.8745 12.5523 26.7375 12.2413 26.6735L12.1117 26.6281C12.0217 26.5943 11.9364 26.5498 11.8577 26.4958C11.7825 26.4477 11.7153 26.3887 11.6583 26.3208C11.6085 26.258 11.6175 26.1915 11.6881 26.1245C11.8181 26.0289 11.9683 25.9633 12.1273 25.9326L12.4553 25.8949C12.6774 25.8774 12.9701 25.9313 13.3343 26.0521C13.6971 26.1752 14.0236 26.3703 14.3112 26.6439C14.6658 26.9977 15.0418 27.2395 15.4428 27.3665C15.8005 27.4927 16.1902 27.5111 16.5618 27.4193C16.908 27.3266 17.2015 27.2219 17.4399 27.1039C17.6719 26.9888 17.8893 26.8471 18.0875 26.6819C17.9989 25.9743 18.1134 25.3786 18.4345 24.8998C17.8762 24.9934 17.312 25.0454 16.7468 25.0555C16.1923 25.0556 15.6409 24.9879 15.1056 24.8541C14.5486 24.7275 14.024 24.495 13.5617 24.1698C13.1174 23.85 12.6991 23.3891 12.3039 22.7836C11.8776 22.0988 11.5617 21.3531 11.3671 20.5721C11.0365 19.3383 11.1699 18.1745 11.7664 17.085C11.129 16.2599 10.8865 15.2089 11.039 13.9317C11.3198 13.7563 11.7903 13.7044 12.45 13.7741C13.1098 13.8437 13.6028 13.922 13.9238 14.0123C14.2463 14.1002 14.504 14.1774 14.7033 14.2443C15.6171 13.7144 16.5993 13.3083 17.6224 13.0373C18.6609 12.759 19.7057 12.6193 20.7544 12.6249L21.2519 12.0969C21.5984 11.7435 22.0205 11.388 22.5217 11.0353C23.0243 10.6802 23.4344 10.5102 23.7537 10.5249C24.5358 11.5515 24.8572 12.5815 24.7152 13.6133C25.779 14.26 26.4759 15.1993 26.807 16.435C27.0394 17.3025 27.1376 18.0997 27.1015 18.8267C27.0655 19.5536 26.9299 20.163 26.6976 20.658C26.4531 21.1682 26.1124 21.63 25.6936 22.0191C25.2969 22.4027 24.8533 22.7369 24.373 23.0141C23.8776 23.2876 23.3622 23.5242 22.8311 23.7218C23.5 24.0335 23.9675 24.6856 24.233 25.6764L25.2133 29.3349C25.2598 29.5088 25.3243 29.6418 25.4053 29.7363C25.4436 29.7814 25.4909 29.8184 25.5445 29.845C25.598 29.8716 25.6566 29.8874 25.7169 29.8913C25.8428 29.8996 25.9537 29.898 26.0446 29.8836C26.138 29.8706 26.2665 29.8422 26.4338 29.7974L18.3677 31.9587Z" fill="currentColor"/>
<path d="M7.20092 9.73744C6.43238 9.94337 5.77712 10.4462 5.3793 11.1352C4.98147 11.8243 4.87367 12.6431 5.0796 13.4117L9.73834 30.7983C9.94427 31.5669 10.4471 32.2221 11.1361 32.62C11.8252 33.0178 12.644 33.1256 13.4126 32.9197L30.7992 28.2609C31.5678 28.055 32.223 27.5522 32.6209 26.8631C33.0187 26.1741 33.1265 25.3552 32.9206 24.5867L28.2618 7.20002C28.0559 6.43148 27.5531 5.77622 26.864 5.3784C26.175 4.98058 25.3561 4.87277 24.5876 5.0787L7.20092 9.73744ZM6.42446 6.83966L23.8111 2.18092C25.3482 1.76906 26.9859 1.98467 28.364 2.78032C29.7421 3.57597 30.7477 4.88648 31.1596 6.42356L35.8183 23.8102C36.2302 25.3473 36.0146 26.985 35.2189 28.3631C34.4233 29.7412 33.1128 30.7468 31.5757 31.1587L14.189 35.8174C12.652 36.2293 11.0142 36.0137 9.63612 35.218C8.25801 34.4224 7.25242 33.1119 6.84056 31.5748L2.18182 14.1881C1.76996 12.6511 1.98557 11.0133 2.78122 9.63522C3.57687 8.25711 4.88738 7.25152 6.42446 6.83966V6.83966Z" fill="currentColor"/>
</svg>
