<svg width="38" height="38" viewBox="0 0 38 38" fill="none" xmlns="http://www.w3.org/2000/svg">
<path d="M7.20092 9.73744C6.43238 9.94337 5.77712 10.4462 5.3793 11.1352C4.98147 11.8243 4.87367 12.6431 5.0796 13.4117L9.73834 30.7983C9.94427 31.5669 10.4471 32.2221 11.1361 32.62C11.8252 33.0178 12.644 33.1256 13.4126 32.9197L30.7992 28.2609C31.5678 28.055 32.223 27.5522 32.6209 26.8631C33.0187 26.1741 33.1265 25.3552 32.9206 24.5867L28.2618 7.20002C28.0559 6.43148 27.5531 5.77622 26.864 5.3784C26.175 4.98058 25.3561 4.87277 24.5876 5.0787L7.20092 9.73744ZM6.42446 6.83966L23.8111 2.18092C25.3482 1.76906 26.9859 1.98467 28.364 2.78032C29.7421 3.57597 30.7477 4.88648 31.1596 6.42356L35.8183 23.8102C36.2302 25.3473 36.0146 26.985 35.2189 28.3631C34.4233 29.7412 33.1128 30.7468 31.5757 31.1587L14.189 35.8174C12.652 36.2293 11.0142 36.0137 9.63612 35.218C8.25801 34.4224 7.25242 33.1119 6.84056 31.5748L2.18182 14.1881C1.76996 12.6511 1.98557 11.0133 2.78122 9.63522C3.57687 8.25711 4.88738 7.25152 6.42446 6.83966V6.83966Z" fill="currentColor"/>
<path d="M17.485 12.5719C16.1095 12.9405 14.8742 13.7086 13.9353 14.7793C12.9963 15.8499 12.396 17.1749 12.2101 18.5868C12.0242 19.9986 12.2612 21.4339 12.891 22.7111C13.5209 23.9882 14.5153 25.0499 15.7485 25.762C16.9818 26.474 18.3984 26.8043 19.8194 26.7112C21.2404 26.618 22.6018 26.1056 23.7316 25.2387C24.8614 24.3718 25.7087 23.1894 26.1664 21.8409C26.6241 20.4925 26.6717 19.0386 26.3032 17.6631C25.8089 15.8186 24.6022 14.246 22.9485 13.2912C21.2948 12.3364 19.3295 12.0777 17.485 12.5719ZM20.5908 24.163C19.6738 24.4087 18.7046 24.377 17.8056 24.0718C16.9066 23.7667 16.1183 23.2018 15.5404 22.4486C14.9625 21.6955 14.6209 20.7878 14.5588 19.8405C14.4967 18.8932 14.7169 17.9487 15.1916 17.1266C15.6663 16.3044 16.3741 15.6415 17.2255 15.2216C18.077 14.8017 19.0338 14.6437 19.975 14.7676C20.9163 14.8916 21.7996 15.2918 22.5134 15.9177C23.2271 16.5437 23.7392 17.3672 23.985 18.2842C24.3103 19.5138 24.136 20.8221 23.5001 21.9235C22.8642 23.0249 21.8183 23.83 20.5908 24.163ZM26.6026 9.50769C26.6948 9.85157 26.6829 10.215 26.5684 10.5522C26.454 10.8893 26.2422 11.1849 25.9597 11.4016C25.6773 11.6183 25.3369 11.7464 24.9817 11.7697C24.6264 11.793 24.2723 11.7104 23.9639 11.5324C23.6556 11.3544 23.407 11.089 23.2496 10.7697C23.0921 10.4504 23.0329 10.0916 23.0793 9.73862C23.1258 9.38566 23.2759 9.0544 23.5106 8.78674C23.7454 8.51908 24.0542 8.32704 24.3981 8.2349C24.8592 8.11134 25.3505 8.17603 25.7639 8.41472C26.1774 8.65342 26.4791 9.04657 26.6026 9.50769Z" fill="currentColor"/>
</svg>
