<svg width="38" height="38" viewBox="0 0 38 38" fill="none" xmlns="http://www.w3.org/2000/svg">
<path d="M26.6834 18.6946L28.1187 24.0512L25.0138 24.8832L23.6744 19.8845C23.3382 18.6298 22.6596 17.8938 21.5352 18.1951C20.6775 18.4249 20.3205 19.1386 20.2458 19.7581C20.2183 19.9797 20.2711 20.2638 20.3456 20.5419L21.7436 25.7594L18.6372 26.5918C18.6372 26.5918 16.4112 18.1161 16.1343 17.2508L19.2407 16.4184L19.5952 17.7412L19.583 17.7771L19.6033 17.7717L19.5952 17.7412C19.8373 16.9931 20.3307 15.8903 21.9809 15.4481C24.0239 14.9007 25.9147 15.8258 26.6834 18.6946ZM11.6774 13.617C10.6154 13.9015 10.107 14.7863 10.3524 15.702C10.5931 16.6003 11.4605 17.1365 12.5022 16.8574L12.5225 16.852C13.6063 16.5616 14.0874 15.6624 13.8471 14.7655C13.5815 13.8553 12.7409 13.332 11.6774 13.617ZM13.8138 27.8842L16.9203 27.0518L14.4174 17.7108L11.3109 18.5432L13.8138 27.8842Z" fill="currentColor"/>
<path d="M7.20092 9.73744C6.43238 9.94337 5.77712 10.4462 5.3793 11.1352C4.98147 11.8243 4.87367 12.6431 5.0796 13.4117L9.73834 30.7983C9.94427 31.5669 10.4471 32.2221 11.1361 32.62C11.8252 33.0178 12.644 33.1256 13.4126 32.9197L30.7992 28.2609C31.5678 28.055 32.223 27.5522 32.6209 26.8631C33.0187 26.1741 33.1265 25.3552 32.9206 24.5867L28.2618 7.20002C28.0559 6.43148 27.5531 5.77622 26.864 5.3784C26.175 4.98058 25.3561 4.87277 24.5876 5.0787L7.20092 9.73744ZM6.42446 6.83966L23.8111 2.18092C25.3482 1.76906 26.9859 1.98467 28.364 2.78032C29.7421 3.57597 30.7477 4.88648 31.1596 6.42356L35.8183 23.8102C36.2302 25.3473 36.0146 26.985 35.2189 28.3631C34.4233 29.7412 33.1128 30.7468 31.5757 31.1587L14.189 35.8174C12.652 36.2293 11.0142 36.0137 9.63612 35.218C8.25801 34.4224 7.25242 33.1119 6.84056 31.5748L2.18182 14.1881C1.76996 12.6511 1.98557 11.0133 2.78122 9.63522C3.57687 8.25711 4.88738 7.25152 6.42446 6.83966V6.83966Z" fill="currentColor"/>
</svg>
