<svg width="34" height="30" viewBox="0 0 34 30" fill="none" xmlns="http://www.w3.org/2000/svg">
<path d="M26.4749 26.8065C26.2871 26.8568 26.1031 26.8744 25.923 26.8593C25.7431 26.8451 25.5638 26.7865 25.3852 26.6834L20.2958 23.745C19.9684 23.5559 19.7512 23.2619 19.6443 22.8629C19.5374 22.4638 19.5784 22.1006 19.7674 21.7732C19.9565 21.4458 20.2505 21.2287 20.6495 21.1217C21.0486 21.0148 21.4118 21.0558 21.7392 21.2449L25.5786 23.4616L30.6822 14.622C30.8712 14.2946 31.1652 14.0774 31.5643 13.9705C31.9633 13.8636 32.3265 13.9046 32.6539 14.0936C32.9813 14.2827 33.1985 14.5767 33.3054 14.9757C33.4123 15.3748 33.3713 15.738 33.1822 16.0654L27.357 26.155C27.2539 26.3336 27.128 26.474 26.9793 26.5763C26.8308 26.6794 26.6627 26.7562 26.4749 26.8065V26.8065ZM3.76686 9.3804L16.9209 13.4034L26.3012 3.34233L3.76686 9.3804ZM9.05017 29.098C8.27555 29.3055 7.53882 29.2076 6.83999 28.8041C6.13997 28.3999 5.68618 27.8105 5.47862 27.0359L0.95007 10.1352C0.742512 9.36054 0.840938 8.62368 1.24535 7.9246C1.64857 7.22483 2.23749 6.77116 3.01211 6.5636L25.5465 0.525539C26.3211 0.31798 27.0584 0.416281 27.7584 0.82044C28.4573 1.22391 28.9105 1.81296 29.118 2.58758L30.7596 8.7141L29.7286 10.4999L28.6976 12.2857L27.056 6.15913L18.2925 15.5643C18.194 15.6662 18.0846 15.7518 17.9643 15.8213C17.8452 15.8914 17.727 15.9422 17.6097 15.9737C17.4923 16.0051 17.3645 16.0202 17.2263 16.019C17.0874 16.019 16.9499 15.9995 16.8136 15.9605L4.52162 12.1972L8.29541 26.2812L15.5487 24.3377L19.1202 26.3997L9.05017 29.098Z" fill="currentColor"/>
</svg>
