<svg width="20" height="20" viewBox="0 0 20 20" fill="none" xmlns="http://www.w3.org/2000/svg">
<path d="M11.1111 20V17.7778H13.3333V20H11.1111ZM8.88889 17.7778V12.2222H11.1111V17.7778H8.88889ZM17.7778 14.4444V10H20V14.4444H17.7778ZM15.5556 10V7.77778H17.7778V10H15.5556ZM2.22222 12.2222V10H4.44444V12.2222H2.22222ZM0 10V7.77778H2.22222V10H0ZM10 2.22222V0H12.2222V2.22222H10ZM1.66667 5H5V1.66667H1.66667V5ZM0 6.66667V0H6.66667V6.66667H0ZM1.66667 18.3333H5V15H1.66667V18.3333ZM0 20V13.3333H6.66667V20H0ZM15 5H18.3333V1.66667H15V5ZM13.3333 6.66667V0H20V6.66667H13.3333ZM15.5556 20V16.6667H13.3333V14.4444H17.7778V17.7778H20V20H15.5556ZM11.1111 12.2222V10H15.5556V12.2222H11.1111ZM6.66667 12.2222V10H4.44444V7.77778H11.1111V10H8.88889V12.2222H6.66667ZM7.77778 6.66667V2.22222H10V4.44444H12.2222V6.66667H7.77778ZM2.5 4.16667V2.5H4.16667V4.16667H2.5ZM2.5 17.5V15.8333H4.16667V17.5H2.5ZM15.8333 4.16667V2.5H17.5V4.16667H15.8333Z" fill="currentColor"/>
</svg>
