<svg width="35" height="37" viewBox="0 0 35 37" fill="none" xmlns="http://www.w3.org/2000/svg">
<path d="M12.1874 18.4743C12.5979 18.3643 12.905 18.1329 13.1086 17.7802C13.3123 17.4275 13.3588 17.0465 13.248 16.6372C13.1381 16.2267 12.9067 15.9196 12.554 15.7159C12.2012 15.5123 11.8202 15.4658 11.4109 15.5765C11.0004 15.6865 10.6933 15.9179 10.4897 16.2706C10.286 16.6233 10.2396 17.0043 10.3503 17.4136C10.4603 17.8242 10.6916 18.1312 11.0444 18.3349C11.3971 18.5385 11.7781 18.585 12.1874 18.4743ZM17.9829 16.9214C18.3935 16.8114 18.7005 16.58 18.9042 16.2273C19.1078 15.8746 19.1543 15.4936 19.0436 15.0843C18.9336 14.6738 18.7022 14.3667 18.3495 14.163C17.9968 13.9594 17.6158 13.9129 17.2065 14.0236C16.796 14.1336 16.4889 14.365 16.2852 14.7177C16.0816 15.0704 16.0351 15.4514 16.1458 15.8607C16.2558 16.2712 16.4872 16.5783 16.8399 16.782C17.1926 16.9856 17.5736 17.0321 17.9829 16.9214ZM23.7785 15.3685C24.189 15.2585 24.4961 15.0271 24.6997 14.6744C24.9034 14.3217 24.9499 13.9406 24.8392 13.5314C24.7292 13.1208 24.4978 12.8138 24.1451 12.6101C23.7923 12.4065 23.4113 12.36 23.002 12.4707C22.5915 12.5807 22.2844 12.8121 22.0808 13.1648C21.8771 13.5175 21.8307 13.8985 21.9414 14.3078C22.0514 14.7183 22.2827 15.0254 22.6355 15.2291C22.9882 15.4327 23.3692 15.4792 23.7785 15.3685ZM7.76457 36.7414L0.776458 10.6615C0.562932 9.86456 0.664059 9.10604 1.07984 8.38589C1.49562 7.66574 2.1016 7.19952 2.89778 6.98722L26.08 0.775561C26.8769 0.562035 27.6354 0.663162 28.3556 1.07894C29.0757 1.49472 29.5419 2.1007 29.7542 2.89688L34.413 20.2835C34.6265 21.0804 34.5254 21.839 34.1096 22.5591C33.6938 23.2793 33.0878 23.7455 32.2917 23.9578L12.0072 29.393L7.76457 36.7414ZM8.78915 28.9741L10.0354 26.8155L31.5152 21.06L26.8565 3.67334L3.67423 9.88499L8.78915 28.9741Z" fill="currentColor"/>
</svg>
