<svg width="38" height="37" viewBox="0 0 38 37" fill="none" xmlns="http://www.w3.org/2000/svg">
<path d="M23.6294 9.57682C22.4985 8.91628 21.2474 8.48754 19.949 8.31558C18.6507 8.14363 17.3311 8.23192 16.0672 8.57529C10.7668 9.99554 7.60435 15.473 9.0246 20.7735C9.47981 22.4724 10.3686 24.003 11.5936 25.2355L11.5715 30.5895L16.3092 27.8842C17.9223 28.2739 19.6139 28.2576 21.2254 27.8258C26.5259 26.4056 29.6883 20.9281 28.2681 15.6276C27.5787 13.0551 25.9311 10.9058 23.6294 9.57682ZM20.7884 26.1949C19.3517 26.5799 17.84 26.5688 16.412 26.171L16.0739 26.0743L13.2584 27.682L13.2734 24.5149L12.9986 24.266C11.8588 23.2052 11.0402 21.8454 10.6361 20.3417C9.45515 15.9344 12.0846 11.38 16.4919 10.1991C18.6277 9.62683 20.8609 9.92325 22.7714 11.0345C23.7151 11.5765 24.542 12.3004 25.2039 13.1643C25.8658 14.0282 26.3497 15.0149 26.6274 16.0672C27.8278 20.4694 25.1958 25.014 20.7884 26.1949ZM23.574 19.0392C23.3001 18.9877 21.9597 18.7226 21.7227 18.6925C21.4786 18.6746 21.3129 18.6774 21.2103 18.9546C21.1103 19.2415 20.7997 19.9074 20.7054 20.0992C20.6137 20.3006 20.4733 20.3591 20.1968 20.2979C19.9228 20.2464 19.076 20.1924 17.945 19.6215C17.0549 19.1732 16.3685 18.5144 16.1579 18.3107C15.9569 18.1044 16.0396 17.947 16.132 17.787C16.2102 17.6516 16.2993 17.4404 16.3793 17.2733C16.4594 17.1062 16.4793 16.9864 16.5154 16.8103C16.5488 16.6244 16.4736 16.4989 16.3841 16.398C16.2947 16.2971 15.4919 15.2428 15.1677 14.8095C14.8487 14.3955 14.6604 14.5084 14.5122 14.5377L14.0462 14.6626C13.8812 14.7068 13.6444 14.8327 13.4862 15.1352C13.3376 15.4351 12.8724 16.1841 13.1897 17.3684C13.5071 18.5528 14.678 19.4668 14.8361 19.5909C14.9969 19.7247 17.2295 21.7276 19.9154 22.1213C20.5558 22.2202 21.0414 22.2462 21.4194 22.2593C22.0416 22.2903 22.558 22.1207 22.9599 21.9506C23.4076 21.7578 24.2308 20.9858 24.2741 20.3707C24.3271 19.753 24.1997 19.2773 24.1031 19.1888C24.0065 19.1002 23.8479 19.0907 23.574 19.0392Z" fill="currentColor"/>
<path d="M6.94311 9.10854C6.17457 9.31446 5.51931 9.81726 5.12149 10.5063C4.72366 11.1954 4.61586 12.0142 4.82179 12.7828L9.48053 30.1694C9.68646 30.938 10.1893 31.5932 10.8783 31.9911C11.5674 32.3889 12.3862 32.4967 13.1548 32.2908L30.5414 27.632C31.31 27.4261 31.9652 26.9233 32.363 26.2342C32.7609 25.5452 32.8687 24.7263 32.6627 23.9578L28.004 6.57111C27.7981 5.80257 27.2953 5.14732 26.6062 4.74949C25.9172 4.35167 25.0983 4.24386 24.3298 4.44979L6.94311 9.10854ZM6.16665 6.21076L23.5533 1.55201C25.0904 1.14016 26.7281 1.35577 28.1062 2.15142C29.4843 2.94707 30.4899 4.25758 30.9018 5.79466L35.5605 23.1813C35.9724 24.7184 35.7568 26.3561 34.9611 27.7342C34.1655 29.1123 32.855 30.1179 31.3179 30.5298L13.9312 35.1885C12.3941 35.6004 10.7564 35.3848 9.37831 34.5891C8.0002 33.7935 6.99461 32.483 6.58275 30.9459L1.92401 13.5592C1.51215 12.0221 1.72776 10.3844 2.52341 9.00631C3.31906 7.62821 4.62957 6.62262 6.16665 6.21076V6.21076Z" fill="currentColor"/>
</svg>
