<?xml version="1.0" standalone="no"?>
<!DOCTYPE svg PUBLIC "-//W3C//DTD SVG 20010904//EN"
 "http://www.w3.org/TR/2001/REC-SVG-20010904/DTD/svg10.dtd">
<svg version="1.0" xmlns="http://www.w3.org/2000/svg"
 width="721.000000pt" height="721.000000pt" viewBox="0 0 721.000000 721.000000"
 preserveAspectRatio="xMidYMid meet">
<metadata>
Created by potrace 1.14, written by Peter Selinger 2001-2017
</metadata>
<g transform="translate(0.000000,721.000000) scale(0.100000,-0.100000)"
fill="#000000" stroke="none">
<path d="M130 5922 c-5 -2 -5 -14 1 -30 9 -22 108 -344 250 -809 10 -35 28
-92 39 -128 11 -36 29 -93 39 -127 10 -35 35 -115 54 -178 20 -63 52 -167 71
-230 19 -63 72 -234 117 -380 99 -325 117 -383 134 -440 21 -72 223 -730 239
-780 15 -43 113 -363 141 -460 37 -124 221 -722 231 -749 2 -8 59 93 125 225
532 1056 712 1410 719 1417 6 7 63 -73 106 -148 43 -76 604 -966 611 -968 7
-2 19 33 63 178 10 33 90 292 178 575 88 283 162 522 164 530 2 12 -29 14
-209 15 l-212 0 -31 -90 c-18 -49 -44 -125 -59 -168 l-27 -78 -36 58 c-19 32
-129 216 -243 408 -114 193 -215 361 -224 375 -10 14 -32 51 -50 83 -18 31
-36 57 -39 57 -4 0 -28 -42 -55 -92 -26 -51 -73 -142 -105 -203 -32 -60 -94
-177 -137 -260 -43 -82 -104 -197 -134 -255 -31 -58 -110 -208 -176 -333 -66
-125 -122 -227 -125 -227 -4 0 -93 280 -136 430 -7 25 -40 131 -73 235 -53
171 -279 897 -382 1230 -22 72 -45 144 -51 160 -5 17 -14 44 -18 60 -4 17 -22
75 -40 130 -17 55 -40 128 -51 163 -41 134 -58 190 -83 267 -13 44 -54 176
-90 293 -36 117 -70 220 -75 229 -8 15 -34 17 -210 17 -111 1 -205 0 -211 -2z"/>
<path d="M3555 5257 c-70 -232 -141 -462 -157 -512 -16 -49 -31 -98 -33 -107
-2 -10 -22 -76 -45 -148 -23 -72 -43 -138 -45 -148 -2 -9 -10 -37 -18 -62 -31
-90 -197 -637 -203 -666 l-5 -29 1057 0 1057 0 18 55 c99 312 106 339 90 344
-9 2 -387 4 -841 4 -454 0 -830 1 -837 1 -8 1 -9 9 -2 29 6 15 29 92 53 172
24 80 46 138 50 130 3 -8 15 -49 27 -90 12 -41 25 -79 30 -84 9 -10 385 -15
401 -5 8 5 -19 102 -129 454 -13 44 -37 123 -53 175 -61 205 -150 492 -154
499 -3 4 -7 18 -10 32 -8 39 -108 363 -115 371 -4 4 -65 -182 -136 -415z"/>
<path d="M4699 5463 c0 -17 0 -244 0 -328 l1 -65 484 0 c277 0 506 -4 537 -10
68 -12 203 -79 249 -123 89 -84 157 -197 175 -292 14 -70 13 -177 -2 -238 -40
-172 -184 -333 -346 -386 -87 -28 -117 -33 -240 -33 -89 0 -109 -3 -116 -17
-8 -15 -111 -355 -115 -376 0 -5 140 -10 364 -11 335 -2 371 -4 444 -23 320
-85 541 -368 540 -691 -1 -127 -26 -229 -84 -337 -43 -79 -44 -82 -110 -155
-92 -103 -246 -189 -385 -214 -51 -10 -217 -13 -616 -13 l-547 -1 23 -77 c62
-211 97 -318 105 -323 14 -9 1001 -4 1038 4 19 5 43 9 55 10 155 18 390 130
540 259 182 157 328 409 363 627 3 19 9 53 13 76 11 60 6 269 -8 339 -39 189
-113 354 -220 490 -105 133 -273 265 -427 335 l-72 33 45 61 c55 75 105 180
140 294 23 78 26 104 27 247 0 124 -4 175 -18 225 -90 326 -320 576 -622 673
-154 49 -149 49 -727 51 -383 1 -487 -2 -488 -11z"/>
<path d="M3966 3432 c-2 -1 5 -31 16 -65 18 -59 106 -348 243 -802 35 -115
102 -338 150 -495 48 -157 107 -352 132 -435 24 -82 57 -193 74 -245 l29 -95
210 0 c136 0 210 3 210 10 0 5 -7 33 -16 60 -28 89 -95 307 -124 405 -15 52
-40 133 -55 180 -14 47 -28 92 -30 100 -2 8 -27 89 -55 180 -84 270 -79 254
-260 845 -55 182 -104 337 -109 345 -7 13 -41 15 -210 15 -111 0 -204 -1 -205
-3z"/>
<path d="M3926 2038 c19 -62 45 -154 60 -203 l25 -90 147 1 c81 1 150 2 153 3
6 1 -91 329 -111 379 -9 21 -13 22 -159 22 l-149 0 34 -112z"/>
</g>
</svg>
